<svg xmlns="http://www.w3.org/2000/svg" viewBox="0 0 500 500"><g id="freepik--Character--inject-110"><g id="freepik--character--inject-110"><g id="freepik--Bottom--inject-110"><g id="freepik--bottom--inject-110"><polygon points="259.09 422.34 263.49 420.37 259.27 419.01 259.09 422.34" style="fill:#263238"></polygon><path d="M301.61,432s-50.06-25.09-50.83-21.66a5,5,0,0,0-.05,2.07,1.27,1.27,0,0,1-.13-.19l.69,6.48s3.52,3.27,7.8,3.65c0-.31.12-2.23.18-3.32a25.2,25.2,0,0,1,4.4,2.57c3.19,2.3,5.14,6.18,8.44,10.73,2.4,3.32,6.84,5,13.48,6.21,7.14,1.3,13.52.16,15.38-1.71C302.45,435.32,301.85,432.45,301.61,432Z" style="fill:#263238"></path><path d="M300.25,430.74c-.47-.53-2.21-2.61-4.59-4.9a94.77,94.77,0,0,0-7.11-6.59,28.56,28.56,0,0,1-3.53-3.17,38,38,0,0,1-2.42-3.1,56.19,56.19,0,0,1-5.75-10.73,24.84,24.84,0,0,1-1.93-5.59,36,36,0,0,1-.37-6.14c.29-9.25.55-10.71.86-17.75l-21.56-.12c.56,3.93,1.43,9.3,1.63,13.75.31,6.76.43,8.27-2.44,14.9-.85,1.95-2.07,3.81-2.25,5.92-.3,3.45,2.28,6.53,5.23,8.33,2.44,1.5,5.29,2.21,7.66,3.79a25.43,25.43,0,0,1,6.1,6.52c1.63,2.27,2.9,4.93,5.25,6.57,2.6,1.82,5.12,2.46,8.19,3.21a44.72,44.72,0,0,0,11.13,1C299.65,436.42,303.67,434.64,300.25,430.74Z" style="fill:#c8856a"></path><path d="M297.47,426.87c-2.13-1.95-5.13-4.73-8.78-7.86a9.53,9.53,0,0,0-7.93.41c-7.72,3.71-9.23,9.34-9.23,9.34a10.92,10.92,0,0,0,6,5.67c8.6,4.18,24.29,3.57,24.6-.48C302.3,431.37,300.05,429.23,297.47,426.87Zm-43.89-27s-.56,1.31-2,3.87-1.79,5.14-.22,7.81a11.65,11.65,0,0,0,7.46,5.54C261.54,409.48,256.55,401.63,253.58,399.85Z" style="fill:#37474f"></path><path d="M213.5,408.79c1.37,2.37-.78,11-.65,17.29.12,5.66,1.32,15.56-.6,21.09-2.27,6.56-6.7,14.11-14.28,7.66-4.7-4-7.31-9.05-7.71-17.22-.28-5.67,2.44-13.37,3.71-20.47,2-11.18,3.19-12.79,3.19-12.79Z" style="fill:#263238"></path><path d="M198.85,366.57c-1,13.18-.75,21.87-.93,30.32a59.79,59.79,0,0,1-1.56,11.37c-1.28,5.35-2.39,13.4-3.29,16.87-1.26,4.85-2.19,7.9-.68,13.42a6.79,6.79,0,0,0,.51,1.26c2.21,4.58,8.09,8.18,10,7.7a3.32,3.32,0,0,0,3.34,1.28,5.19,5.19,0,0,0,.64-.13,4.7,4.7,0,0,0,.65-.24,6.59,6.59,0,0,0,3.32-4.05,11.06,11.06,0,0,0,.34-1.18c1.61-6.75.74-11.17.69-13.84,0-3.07.25-7,.68-11.91s2.1-20.44,4-27.81c1.45-5.15,3.24-11.6,5.14-18.48Z" style="fill:#c8856a"></path><path d="M191.7,431.45c4.79-1.94,18.49-1.79,20.47,4.94-.15,6.28-.24,10.54-4.38,15.87-5.5,7.09-12.13-.82-14.61-5.79S191,434.81,191.7,431.45Z" style="fill:#37474f"></path><path d="M222.18,194.85c-7.05,11.75-12.75,21.66-15.49,53.2-3.1,35.59-3.24,49.17-3.54,53.47s-3.34,12.1-6.36,33.22S193.52,407,193.52,407s2.64,3.83,10.72,4.88c7.45,1,11.93-1.52,11.93-1.52s14-67.08,17.35-79.74,13.22-54.32,13.22-54.32l3.56,34.25s-2.74,11.61-1.18,30.29,4,59.72,4,59.72a32.63,32.63,0,0,0,11.6,4.34,30.55,30.55,0,0,0,13.39-1.24s8.11-79.81,8.94-100.88.86-73.72-4.55-105.17Z" style="fill:#455a64"></path><path d="M255,236l-8.26,40.26,3.56,34.25-.73-34.59,7.27-33c5.13-1,16.93-6.66,20.44-15.24C269.13,235.57,255,236,255,236Zm-22.82-24.61c1-3.37,2.11-6.72,3.31-10.09a50.79,50.79,0,0,0-5,9.5A95.83,95.83,0,0,0,227.09,221c-.94,3.44-1.75,6.92-2.35,10.43A70.19,70.19,0,0,0,223.62,242c1-3.44,1.92-6.85,2.84-10.26s1.82-6.82,2.79-10.2S231.17,214.78,232.18,211.41Zm-5-2.76c1.22-2,2.46-4.07,3.6-6.22a38.17,38.17,0,0,0-5,5.22,51.76,51.76,0,0,0-4.16,5.93,45.32,45.32,0,0,0-3.23,6.51,28.33,28.33,0,0,0-1.91,7l3.49-6.25c1.18-2,2.35-4.1,3.58-6.11S226,210.7,227.18,208.65Zm-9.52,135.14q-3.61,16.35-6.79,32.78,4.47-16.14,8.5-32.37c2.72-10.83,5.3-21.64,7.87-32.54s4.23-22,5.74-33,2.77-22.15,3.88-33.26c-2,11-3.79,22-5.61,33s-3.74,22-6.2,32.81S220,332.9,217.66,343.79Zm59.79-53.18c0,4.84.13,9.72-.14,14.49s-.77,9.65-1.21,14.48l-1.3,14.51q-1.31,14.51-2.29,29.06,2.28-14.4,4-28.88c1.17-9.66,2.29-19.28,3-29,.36-9.83-.1-19.51-.59-29.24s-1.31-19.41-2.43-29.07l.68,29.14C277.29,280.91,277.42,285.76,277.45,290.61Z" style="fill:#37474f"></path></g></g><g id="freepik--Top--inject-110"><path id="freepik--Chest--inject-110" d="M214.15,211.16c-6.29-3.38,1-7.27,3.45-27,.63-5.07-.41-17.79-.41-17.79s11.72-12.83,10-37.58l22.36-1.29,14.33.86,9,3.19c3,2.94,3.94,5.16,8.09,12,6,9.93,9,21.57,3.45,30.13-.19,1.5-.43,24.67,1.16,30.42,1.48,5.34,1.82,5.95-1.13,8.14C275.24,218.33,225.36,216.16,214.15,211.16Z" style="fill:#fafafa"></path><path d="M298.47,144.12c10.75,9.16,13.07,11.06,13.07,11.06,5.12-10.92,8.36-16.54,9.27-21.93s9.05-16.6,9.05-16.6c5.45,2,9,11.18,5.31,19.89-2.68,6.34-1.86,17.67-8.66,38.08-2.44,7.34-6.41,9-16.32,4.71-8.78-3.78-34.46-21.2-34.46-21.2l-.46-27.75C283.27,131.68,286.76,134.13,298.47,144.12Z" style="fill:#c8856a"></path><path d="M311.54,155.18c-2.66,5.22-3,14.24-3,14.24s-2.8-6.06.92-16Z" style="fill:#af6152"></path><path d="M274.92,129.8c4.11.86,6.86,1.16,11.22,3.8s25.39,20.93,25.39,20.93l6.64-13.31s.75,4.63,7.1,8.06,7.84.17,7.84.17-2.75,16.14-5.35,23.44-4.64,10.41-10.17,9.27S307,178.49,291.65,169s-16.25-10.32-16.25-10.32Z" style="fill:#5184D8"></path><path d="M274.92,129.8c4.11.86,6.86,1.16,11.22,3.8s25.39,20.93,25.39,20.93l6.64-13.31s.75,4.63,7.1,8.06,7.84.17,7.84.17-2.75,16.14-5.35,23.44-4.64,10.41-10.17,9.27S307,178.49,291.65,169s-16.25-10.32-16.25-10.32Z" style="opacity:0.4"></path><path d="M311.53,154.53a24.34,24.34,0,0,0-1.26,14.2c-2.8-4.93-1.93-11-.73-15.83Z" style="opacity:0.4"></path><path d="M345.88,118.73c-.5,3.64-2.16,6-3.09,7.8-3.58,7-5.12,6-8.52,11.35l-4.55-16.23c-2.2-4.87.08-6.73,4.24-7.31Z" style="fill:#af6152"></path><g id="freepik--Megaphone--inject-110"><path d="M304.58,106.87a10.46,10.46,0,1,0-1.48-14.72A10.47,10.47,0,0,0,304.58,106.87Z" style="fill:#455a64"></path><path d="M308.91,103.66l12.75-4.84a10.46,10.46,0,0,1-20.48,3C302.66,104.2,304.82,105.21,308.91,103.66Z" style="fill:#37474f"></path><path d="M318.1,101.74l1.34-8.31a107.73,107.73,0,0,0,21.63,21.43l-.54,3.32C335.14,116,326.09,109.09,318.1,101.74Z" style="fill:#37474f"></path><path d="M312.44,108.56l5,.1,8.92,7.18a14.6,14.6,0,0,0,14.2,2.34h0c-6.24-2.84-15.1-9.82-22.43-16.44Z" style="fill:#455a64"></path><path d="M328.68,109.3c0,.09,0,.17,0,.25a1.37,1.37,0,0,1-.79,1l-1.8.69c-.37.14-.42.45-.12.7l.19.16a1.39,1.39,0,0,0,1.23.2l1.83-.69a1.35,1.35,0,0,0,.78-1l0-.23a1.38,1.38,0,0,0-.45-1.16l-.19-.16C329,108.8,328.74,108.91,328.68,109.3Z" style="fill:#5184D8"></path><path d="M331.75,111.48c0,.08,0,.16,0,.24a1.37,1.37,0,0,1-.79,1l-1.8.69c-.37.14-.42.45-.11.7l.19.16a1.36,1.36,0,0,0,1.22.2l1.84-.69a1.36,1.36,0,0,0,.77-1l0-.23a1.42,1.42,0,0,0-.46-1.16l-.19-.16C332.11,111,331.81,111.08,331.75,111.48Z" style="fill:#5184D8"></path><path d="M334.82,113.65l0,.24a1.36,1.36,0,0,1-.78,1l-1.81.69c-.37.14-.42.45-.11.71l.19.15a1.36,1.36,0,0,0,1.22.2l1.84-.69a1.32,1.32,0,0,0,.77-1l0-.23a1.44,1.44,0,0,0-.45-1.16l-.2-.16C335.19,113.14,334.89,113.25,334.82,113.65Z" style="fill:#5184D8"></path><path d="M315,84.22h0c-1.51.57-2.67,2-3.2,4.32-.06.24-.11.48-.15.74s-.09.61-.12.92a13.78,13.78,0,0,0,0,1.58,17.34,17.34,0,0,0,.34,3,20.64,20.64,0,0,0,3.24,7.63,14.75,14.75,0,0,0,2.65,2.89c2.06,1.68,4.1,2.17,5.75,1.61l-5.69,2.16v0a6.8,6.8,0,0,1-6.52-1.31,14.17,14.17,0,0,1-2.53-2.74,20.44,20.44,0,0,1-3.35-7.78,17.13,17.13,0,0,1-.34-3,11.68,11.68,0,0,1,0-1.57c0-.32.06-.62.11-.92s.1-.5.16-.74a6.74,6.74,0,0,1,3.85-4.56h0l.16-.06.2-.08Z" style="fill:#5184D8"></path><path d="M317.73,109.07v0a6.8,6.8,0,0,1-6.52-1.31,14.17,14.17,0,0,1-2.53-2.74l6.34-2.59a14.75,14.75,0,0,0,2.65,2.89c2.06,1.68,4.1,2.17,5.75,1.61Z" style="opacity:0.1"></path><path d="M320.84,85.79c4.23,3.45,7,10.61,6.07,16-.44,2.71-1.71,4.46-3.4,5.08l-.09,0c-1.65.56-3.69.07-5.75-1.61-4.23-3.45-6.95-10.62-6.07-16,.43-2.69,1.68-4.43,3.35-5.06S318.72,84.06,320.84,85.79Z" style="fill:#5184D8"></path><path d="M320.84,85.79c4.23,3.45,7,10.61,6.07,16-.44,2.71-1.71,4.46-3.4,5.08l-.09,0c-1.65.56-3.69.07-5.75-1.61-4.23-3.45-6.95-10.62-6.07-16,.43-2.69,1.68-4.43,3.35-5.06S318.72,84.06,320.84,85.79Z" style="opacity:0.2"></path><path d="M336.35,64.57s-2,9.49,3.2,23.28a57.08,57.08,0,0,0,3.3,7.22c4.69,8.61,9.74,12.33,9.74,12.33-6.51-2-13.59-3.64-20.84-2.67a83.55,83.55,0,0,0-8.4,1.61h0c-1.52.57-3.43.09-5.33-1.47a14.83,14.83,0,0,1-3.28-3.93,19.4,19.4,0,0,1-1.5-3.11,16.93,16.93,0,0,1-1.09-8.45c.39-2.42,1.49-4,3-4.63h0a81.75,81.75,0,0,0,7.36-4.36C328.59,76.3,332.79,70.37,336.35,64.57Z" style="fill:#5184D8"></path><path d="M336.35,64.57s-2,9.49,3.2,23.28a57.08,57.08,0,0,0,3.3,7.22c4.69,8.61,9.74,12.33,9.74,12.33-6.51-2-13.59-3.64-20.84-2.67a83.55,83.55,0,0,0-8.4,1.61h0c-1.52.57-3.43.09-5.33-1.47a14.83,14.83,0,0,1-3.28-3.93,19.4,19.4,0,0,1-1.5-3.11,16.93,16.93,0,0,1-1.09-8.45c.39-2.42,1.49-4,3-4.63h0a81.75,81.75,0,0,0,7.36-4.36C328.59,76.3,332.79,70.37,336.35,64.57Z" style="fill:#fff;opacity:0.6000000000000001"></path><path d="M342.85,95.07c4.69,8.61,9.74,12.33,9.74,12.33-6.51-2-13.59-3.64-20.84-2.67a83.55,83.55,0,0,0-8.4,1.61h0c-1.52.57-3.43.09-5.33-1.47a14.83,14.83,0,0,1-3.28-3.93C321.41,98,332.78,93.57,342.85,95.07Z" style="opacity:0.1"></path><path d="M356.18,59.76a40.18,40.18,0,0,1,10.74,14.8h0c3.34,7.56,4.87,16.09,3.7,23.29-2.09,12.82-11.93,16.55-22,8.34a34.35,34.35,0,0,1-6.28-6.87A48.42,48.42,0,0,1,334,76.53c-.1-1.11-.15-2.21-.16-3.29q0-.69,0-1.35h0c0-.63.06-1.26.12-1.88s.14-1.28.24-1.9C336.27,55.28,346.12,51.54,356.18,59.76Z" style="fill:#5184D8"></path><path d="M366.92,74.56c3.34,7.56,4.87,16.09,3.7,23.29-2.09,12.82-11.93,16.55-22,8.34a34.35,34.35,0,0,1-6.28-6.87h0c1.78.47,5.37-.13,4.84-2.14a31.19,31.19,0,0,0,5.58,6.08c2.89,2.36,5.75,3.62,8.27,3.65a6.7,6.7,0,0,0,5.43-2.64,15.51,15.51,0,0,0,2.91-7.3c1-6.13-.19-13.48-2.87-20.18C366.51,76.79,367.41,76.62,366.92,74.56Z" style="opacity:0.1"></path><path d="M355.86,61.3c4.44,3.62,8.18,9.28,10.65,15.49,2.68,6.7,3.87,14,2.87,20.18a15.51,15.51,0,0,1-2.91,7.3,6.7,6.7,0,0,1-5.43,2.64c-2.52,0-5.38-1.29-8.27-3.65a31.19,31.19,0,0,1-5.58-6.08c-.63-.89-1.24-1.82-1.81-2.79a43.27,43.27,0,0,1-2.71-5.3c-.16-.38-.32-.76-.47-1.14-.26-.63-.51-1.28-.73-1.92a45.14,45.14,0,0,1-1.84-6.68s0-.06,0-.08a40.75,40.75,0,0,1-.61-4.42c-.08-1-.12-2.08-.11-3.09,0-.42,0-.84,0-1.26s.07-1,.12-1.49.12-1,.19-1.41a15.57,15.57,0,0,1,2.91-7.31C345.29,56.47,350.41,56.85,355.86,61.3Z" style="fill:#5184D8"></path><path d="M355.86,61.3c4.44,3.62,8.18,9.28,10.65,15.49,2.68,6.7,3.87,14,2.87,20.18a15.51,15.51,0,0,1-2.91,7.3,6.7,6.7,0,0,1-5.43,2.64c-2.52,0-5.38-1.29-8.27-3.65a31.19,31.19,0,0,1-5.58-6.08c-.63-.89-1.24-1.82-1.81-2.79a43.27,43.27,0,0,1-2.71-5.3c-.16-.38-.32-.76-.47-1.14-.26-.63-.51-1.28-.73-1.92a45.14,45.14,0,0,1-1.84-6.68s0-.06,0-.08a40.75,40.75,0,0,1-.61-4.42c-.08-1-.12-2.08-.11-3.09,0-.42,0-.84,0-1.26s.07-1,.12-1.49.12-1,.19-1.41a15.57,15.57,0,0,1,2.91-7.31C345.29,56.47,350.41,56.85,355.86,61.3Z" style="opacity:0.4"></path><path d="M350.37,75.83,355.5,89c-3,1.28-6.78,2.81-9.54,6.35-.2-.31-.39-.62-.58-1a45.51,45.51,0,0,1-2.71-5.3c-.16-.38-.32-.76-.47-1.14-.26-.64-.51-1.28-.73-1.92a46.39,46.39,0,0,1-1.84-6.68.19.19,0,0,0,0-.08l-.18-1C343.94,79.07,350.37,75.83,350.37,75.83Z" style="fill:#37474f"></path><path d="M356.26,88.36c-1,1.18-2.48,1.11-4.07-.19l-.05,0a11.26,11.26,0,0,1-3.59-9.47V78.6a4.38,4.38,0,0,1,.83-2c1-1.18,2.48-1.1,4.07.19l.05,0a11.26,11.26,0,0,1,3.59,9.47v.06a4.38,4.38,0,0,1-.83,2Z" style="fill:#5184D8"></path></g><path d="M333.18,108.41s1.87-.37,2.52-.44c1.56-.19,2.75-.64,3.79.6.35.42.51,1.17.92,1.52s1.49.35,2.08.53a2.88,2.88,0,0,1,1.68,1.24c.25.43.26,1.17.62,1.45s1.29.37,1.82.66c1.18.66,1.37,2.33,1.71,3.49s1,3,.39,4.27a5.7,5.7,0,0,1-2.23,2.15,31.15,31.15,0,0,1-3.3,1.83,1.9,1.9,0,0,1-2.42-.89c-.68-1.07-2.17-.84-3-1.8-.36-.41-.43-1-.78-1.41a3,3,0,0,1-.92-1.53c-.21-1.19.48-2.39.82-3.5a6.94,6.94,0,0,0,0-3.14,4.87,4.87,0,0,0-1-2.51Z" style="fill:#c8856a"></path><path d="M320.81,133.25c.8-6.81.67-9.79,1-13,.37-3.67,3.11-5.51,6.38-7.67a35,35,0,0,0,4.94-3.79c1.26-1.15,1.89,2.84,1.52,4.28-.44,1.73-2.27,3.58-3.5,5-2.81,3.33,6.44,9.23,3.13,19.78C331.67,141.16,320.81,133.25,320.81,133.25Z" style="fill:#c8856a"></path><path d="M263.92,128.4l9,2c12.74,10.87,16.24,18.06,15.33,44.67-.32,9.53.73,25.59,1.78,35.69,1.26,12,3.5,28.47,3.5,28.47s-6.58,6.08-14.07,7.59c-1.31-12.86-3.17-63.15-2-74.31S280.12,143.77,263.92,128.4Z" style="fill:#5184D8"></path><path d="M263.92,128.4l9,2c12.74,10.87,16.24,18.06,15.33,44.67-.32,9.53.73,25.59,1.78,35.69,1.26,12,3.5,28.47,3.5,28.47s-6.58,6.08-14.07,7.59c-1.31-12.86-3.17-63.15-2-74.31S280.12,143.77,263.92,128.4Z" style="opacity:0.30000000000000004"></path><path d="M278.46,177.87c.94-2.91,2-5.8,3-8.68s2-5.78,3-8.68a34.43,34.43,0,0,0,1.17-4.37c.32-1.38-.58-2.62-1.49-3.79a41.26,41.26,0,0,0-6.6-6.19l-.22-.17.07-.27a14.85,14.85,0,0,0,.34-4.85,12.55,12.55,0,0,0-1.35-4.69,14.63,14.63,0,0,0-3.17-3.77,23.51,23.51,0,0,0-4.13-2.85,20.76,20.76,0,0,1,4.34,2.59,13.59,13.59,0,0,1,3.45,3.75,13.27,13.27,0,0,1,1.59,4.89,14.52,14.52,0,0,1-.28,5.16l-.15-.45a39.76,39.76,0,0,1,6.82,6.28,11.07,11.07,0,0,1,1.3,2,3.66,3.66,0,0,1,.22.58,2.15,2.15,0,0,1,.15.63,4.08,4.08,0,0,1-.05,1.27,36,36,0,0,1-1.25,4.48c-1,2.92-2.12,5.76-3.23,8.61S279.62,175,278.46,177.87Z" style="opacity:0.2"></path><path d="M239.58,128.12s3.47,5.23,7.7,17.24,8.36,22.95,7.47,33.72-8.86,72.53-8.86,72.53-20.11,6.83-43.69-7.1c4.59-26.72,11.59-41.41,12.74-52,.57-5.27-3.07-22.77-5.27-36.58-3-18.67,10.4-26.14,10.4-26.14Z" style="fill:#5184D8"></path><path d="M239.58,128.12s3.47,5.23,7.7,17.24,8.36,22.95,7.47,33.72-8.86,72.53-8.86,72.53-20.11,6.83-43.69-7.1c4.59-26.72,11.59-41.41,12.74-52,.57-5.27-3.07-22.77-5.27-36.58-3-18.67,10.4-26.14,10.4-26.14Z" style="opacity:0.30000000000000004"></path><path d="M252.47,182.14a25,25,0,0,0-3.69-7.76c-1.56-2.42-3.3-4.72-5.09-7-.88-1.14-1.79-2.26-2.7-3.39l-1.37-1.69c-.23-.29-.45-.55-.69-.89a1.46,1.46,0,0,1-.17-.26,3.12,3.12,0,0,1-.15-.43,3,3,0,0,1,0-.73,13.09,13.09,0,0,1,1.82-4.18c.79-1.26,1.61-2.45,2.5-3.63l0,.72-4.08-4.79-2-2.41-.5-.61-.26-.3a3,3,0,0,1-.34-.48,2.48,2.48,0,0,1,0-1q.06-.42.15-.81a49.41,49.41,0,0,1,2-6.07c.77-2,1.55-3.93,2.42-5.85-.65,2-1.32,4-1.93,6a61.08,61.08,0,0,0-1.63,6.06,4.25,4.25,0,0,0-.08,1.32c-.06-.11.05.06.14.15l.27.29.53.59,2.11,2.37,4.2,4.77.3.34-.28.39c-.84,1.14-1.65,2.34-2.38,3.56a12.52,12.52,0,0,0-1.71,3.7,1.92,1.92,0,0,0,0,.34.3.3,0,0,1,0,.1s.08.12.12.18c.18.26.42.56.63.84l1.34,1.7q1.35,1.71,2.66,3.46c1.71,2.35,3.35,4.75,4.83,7.27a35.61,35.61,0,0,1,1.95,3.91A15.05,15.05,0,0,1,252.47,182.14Z" style="opacity:0.2"></path><path d="M265.43,128s9.23,20.13-2.47,41-35,34.83-50.42,36.52c-.92.08-.37-.9-.37-.9l1-3.34a4,4,0,0,0-4,2.46c-1.38,3.47-2.68,7.38-5.09,14.18-1.87,5.27,7.6,6.9,17.23,5.76,11-1.31,27.45-9.37,42.87-23.64,11.85-11,29.25-36.93,20.64-67.59A47.9,47.9,0,0,0,265.43,128Z" style="fill:#5184D8"></path><path d="M232,204.64a.36.36,0,0,1,.3,0,.77.77,0,0,1,.28.2l5.87,5.63.05.07a.31.31,0,0,1,0,.25.28.28,0,0,1-.17.18l-.78.37a.47.47,0,0,1-.35.05.62.62,0,0,1-.2-.12l-1-1-3.44,1.6.09,1.42a.53.53,0,0,1,0,.24.43.43,0,0,1-.26.23l-.79.37a.29.29,0,0,1-.24,0,.32.32,0,0,1-.19-.17.24.24,0,0,1,0-.08l-.54-8.12a.9.9,0,0,1,0-.34.39.39,0,0,1,.22-.22Zm2.82,4.5-2.64-2.54.25,3.66Z" style="fill:#fafafa"></path><path d="M241.29,204.52l0-4.57a2.35,2.35,0,0,1,0-.25.44.44,0,0,1,.24-.29l.7-.42a.36.36,0,0,1,.25,0,.29.29,0,0,1,.19.15l3.94,6.68a.29.29,0,0,1,0,.24.38.38,0,0,1-.15.2l-.84.49a.29.29,0,0,1-.24,0,.35.35,0,0,1-.2-.15l-2.39-4,0,3.12a.81.81,0,0,1,0,.25.39.39,0,0,1-.19.23l-.54.32a.42.42,0,0,1-.29,0,.85.85,0,0,1-.24-.09l-2.72-1.53,2.39,4a.36.36,0,0,1,0,.25.3.3,0,0,1-.15.2l-.83.49a.31.31,0,0,1-.25,0,.32.32,0,0,1-.2-.14l-3.94-6.68a.36.36,0,0,1,0-.25.33.33,0,0,1,.15-.2l.7-.41a.48.48,0,0,1,.37-.07l.24.09Z" style="fill:#fafafa"></path><path d="M249,204.57a.29.29,0,0,1-.24.05.28.28,0,0,1-.21-.12L244,198.2a.34.34,0,0,1-.06-.24.33.33,0,0,1,.13-.21l2.88-2.07a3.15,3.15,0,0,1,1.18-.56,2.45,2.45,0,0,1,1,0,2.25,2.25,0,0,1,.82.36,2.44,2.44,0,0,1,.56.55,2,2,0,0,1,.3.57,2.8,2.8,0,0,1,.09.53,1.85,1.85,0,0,1,0,.43,1,1,0,0,1-.07.28,2.54,2.54,0,0,1,1,.18,2.08,2.08,0,0,1,.94.76,2.94,2.94,0,0,1,.39.84,2.48,2.48,0,0,1,.07.94,2.33,2.33,0,0,1-.32.95,2.44,2.44,0,0,1-.78.83Zm.27-7.55a.82.82,0,0,0-.64-.39,1.45,1.45,0,0,0-.88.34L246,198.21l1.08,1.5,1.72-1.24a1.45,1.45,0,0,0,.61-.72A.85.85,0,0,0,249.24,197Zm-.09,5.58,1.8-1.3a1.37,1.37,0,0,0,.62-.79.94.94,0,0,0-.18-.78,1,1,0,0,0-.69-.42,1.42,1.42,0,0,0-.94.32l-1.81,1.3Z" style="fill:#fafafa"></path><path d="M253.09,190.77a.39.39,0,0,1,.29-.11,1,1,0,0,1,.33.12l7.18,3.82.06.06a.32.32,0,0,1,.08.23.38.38,0,0,1-.11.23l-.66.56a.42.42,0,0,1-.32.14.7.7,0,0,1-.23-.06l-1.26-.67-2.87,2.48.48,1.34a.83.83,0,0,1,0,.24.43.43,0,0,1-.19.29l-.65.57a.35.35,0,0,1-.24.08.36.36,0,0,1-.22-.11.35.35,0,0,1,0-.08L252,192.24a.82.82,0,0,1-.08-.34.46.46,0,0,1,.15-.27Zm4,3.56-3.24-1.73,1.24,3.45Z" style="fill:#fafafa"></path><path d="M258,185.88a4.45,4.45,0,0,1,1.13-.89,3.8,3.8,0,0,1,1.09-.37,2.3,2.3,0,0,1,.95,0,1.91,1.91,0,0,1,.7.34.24.24,0,0,1,.1.22.32.32,0,0,1-.09.23l-.58.62a.53.53,0,0,1-.26.17.89.89,0,0,1-.28,0,1.54,1.54,0,0,0-.76,0,2.1,2.1,0,0,0-.9.64,2.18,2.18,0,0,0-.36.47,1.81,1.81,0,0,0-.2.49,1.14,1.14,0,0,0,0,.45.69.69,0,0,0,.21.37.86.86,0,0,0,.41.23.87.87,0,0,0,.48-.08,3.76,3.76,0,0,0,.66-.36c.25-.16.57-.37.94-.63a6.77,6.77,0,0,1,1.12-.65,2.9,2.9,0,0,1,.95-.28,1.92,1.92,0,0,1,.83.11,2.22,2.22,0,0,1,.75.48,2.1,2.1,0,0,1,.56.86,2.28,2.28,0,0,1,.11,1,3.21,3.21,0,0,1-.37,1.15,4.77,4.77,0,0,1-.85,1.19,5.19,5.19,0,0,1-1,.83,3.9,3.9,0,0,1-1.08.47,2.56,2.56,0,0,1-1.06,0,2,2,0,0,1-.93-.42.26.26,0,0,1-.1-.23.32.32,0,0,1,.09-.23l.58-.61a.56.56,0,0,1,.26-.18.45.45,0,0,1,.28,0,2.2,2.2,0,0,0,.37.06,1.05,1.05,0,0,0,.42,0,1.83,1.83,0,0,0,.5-.23,3.05,3.05,0,0,0,.58-.5,4.32,4.32,0,0,0,.43-.55,2.2,2.2,0,0,0,.28-.55,1.3,1.3,0,0,0,.05-.51.73.73,0,0,0-.23-.43.56.56,0,0,0-.43-.17,1.26,1.26,0,0,0-.56.17,6.39,6.39,0,0,0-.75.46c-.28.2-.61.42-1,.66a6.73,6.73,0,0,1-1,.53,2.45,2.45,0,0,1-.87.21,1.79,1.79,0,0,1-.79-.15,2.57,2.57,0,0,1-.78-.53,2.1,2.1,0,0,1-.56-.86,2.29,2.29,0,0,1-.11-1,3.06,3.06,0,0,1,.31-1.08A4.22,4.22,0,0,1,258,185.88Z" style="fill:#fafafa"></path><path d="M262.73,180.22a4.23,4.23,0,0,1,1-1,3.35,3.35,0,0,1,1-.49,2.42,2.42,0,0,1,.95-.08,1.91,1.91,0,0,1,.73.26.27.27,0,0,1,.13.21.3.3,0,0,1-.07.24l-.5.67a.47.47,0,0,1-.24.2.65.65,0,0,1-.28,0,1.73,1.73,0,0,0-.75.12,2.17,2.17,0,0,0-.82.74,2.12,2.12,0,0,0-.3.52,1.51,1.51,0,0,0-.14.51,1,1,0,0,0,.05.45.69.69,0,0,0,.25.34.74.74,0,0,0,.43.17.82.82,0,0,0,.47-.13,3.32,3.32,0,0,0,.61-.43c.24-.19.52-.44.86-.73a6.85,6.85,0,0,1,1-.78,2.81,2.81,0,0,1,.91-.39,2,2,0,0,1,.84,0,2.23,2.23,0,0,1,.8.4,2,2,0,0,1,.66.79,2.31,2.31,0,0,1,.23,1,3.52,3.52,0,0,1-.23,1.18,5.17,5.17,0,0,1-.72,1.28,4.69,4.69,0,0,1-.89.94,3.7,3.7,0,0,1-1,.59,2.55,2.55,0,0,1-1,.17,2,2,0,0,1-1-.31.27.27,0,0,1-.13-.21.3.3,0,0,1,.07-.24l.5-.68a.47.47,0,0,1,.24-.2.52.52,0,0,1,.28,0,2.23,2.23,0,0,0,.37,0,1.1,1.1,0,0,0,.42-.09A2.46,2.46,0,0,0,268,185a3.3,3.3,0,0,0,.52-.57,4.13,4.13,0,0,0,.37-.59,1.86,1.86,0,0,0,.21-.58,1.23,1.23,0,0,0,0-.51.69.69,0,0,0-.28-.4.57.57,0,0,0-.44-.13,1.38,1.38,0,0,0-.54.24q-.3.21-.69.54c-.25.23-.56.49-.91.77a6.1,6.1,0,0,1-.9.64,2.54,2.54,0,0,1-.84.31,2,2,0,0,1-.8-.05,2.68,2.68,0,0,1-.83-.44,2.17,2.17,0,0,1-.66-.79,2.25,2.25,0,0,1-.23-1,3.15,3.15,0,0,1,.18-1.11A4.51,4.51,0,0,1,262.73,180.22Z" style="fill:#fafafa"></path><path d="M267.42,173.31a.4.4,0,0,1,.23-.2,1.05,1.05,0,0,1,.35,0l8,1.28.08,0a.32.32,0,0,1,.15.19.36.36,0,0,1,0,.25l-.44.75a.46.46,0,0,1-.26.23.48.48,0,0,1-.23,0l-1.41-.23L272,178.93l.89,1.12a.69.69,0,0,1,.1.21.43.43,0,0,1-.08.34l-.44.75a.36.36,0,0,1-.19.15.32.32,0,0,1-.25,0,.18.18,0,0,1-.07-.05l-5.07-6.36a1,1,0,0,1-.18-.3.43.43,0,0,1,.06-.3Zm4.88,2.09-3.62-.59,2.29,2.87Z" style="fill:#fafafa"></path><path d="M270.62,166.74a4.67,4.67,0,0,1,.8-1.34,2.93,2.93,0,0,1,1-.75,2.74,2.74,0,0,1,1.22-.23,4.68,4.68,0,0,1,1.37.25,15.71,15.71,0,0,1,1.64.68,4.59,4.59,0,0,1,1.16.77,3,3,0,0,1,.72,1,2.8,2.8,0,0,1,.21,1.24,4.59,4.59,0,0,1-.35,1.48l-1.15,2.8a.3.3,0,0,1-.17.18.36.36,0,0,1-.25,0l-7.18-2.93a.28.28,0,0,1-.17-.18.26.26,0,0,1,0-.24Zm3.81-.57a2.67,2.67,0,0,0-.72-.13,1.67,1.67,0,0,0-.67.13,1.6,1.6,0,0,0-.59.43,2.47,2.47,0,0,0-.47.77l-.6,1.49,5,2,.63-1.55a2.33,2.33,0,0,0,.2-.84,1.94,1.94,0,0,0-.12-.7,1.53,1.53,0,0,0-.4-.55,2.18,2.18,0,0,0-.61-.41A15.71,15.71,0,0,0,274.43,166.17Z" style="fill:#fafafa"></path><path d="M275.26,163.39a4.19,4.19,0,0,1-1.17-.55,2.93,2.93,0,0,1-.85-.87,3,3,0,0,1-.42-1.22,4,4,0,0,1,.1-1.55,4.31,4.31,0,0,1,.6-1.42,3.13,3.13,0,0,1,.93-.89,3,3,0,0,1,1.16-.4,3.81,3.81,0,0,1,1.3,0l.49.1.56.12.55.14.49.14a4.47,4.47,0,0,1,1.17.54,2.9,2.9,0,0,1,1.27,2.1,4.38,4.38,0,0,1-.11,1.54,4.14,4.14,0,0,1-.61,1.44,3,3,0,0,1-.92.89,2.9,2.9,0,0,1-1.16.39,4,4,0,0,1-1.29,0l-.49-.1-.56-.13-.55-.14Zm1.33-5.27a1.84,1.84,0,0,0-1.43.23,2.14,2.14,0,0,0-.63,2.62,1.9,1.9,0,0,0,1.17.86l1,.26c.36.08.69.16,1,.21a1.89,1.89,0,0,0,1.43-.23,1.91,1.91,0,0,0-.54-3.48c-.29-.09-.62-.17-1-.26S276.89,158.17,276.59,158.12Z" style="fill:#fafafa"></path><path d="M274.32,151.28a3.34,3.34,0,0,1,.9-2.21,2.44,2.44,0,0,1,2-.59,2.64,2.64,0,0,1,1.45.53,2.39,2.39,0,0,1,.81,1.26l3.1-1.37.14,0a.27.27,0,0,1,.18.1.31.31,0,0,1,.06.19l-.1,1a.49.49,0,0,1-.14.34.83.83,0,0,1-.23.14L279.56,152l-.15,1.59,2.78.25a.32.32,0,0,1,.22.12.35.35,0,0,1,.08.24l-.09,1a.34.34,0,0,1-.36.3l-7.71-.71a.34.34,0,0,1-.3-.36Zm3.6,2.14.15-1.73a2.1,2.1,0,0,0-.13-1.11,1.22,1.22,0,0,0-1.81-.17,2.41,2.41,0,0,0-.33,1.07l-.15,1.73Z" style="fill:#fafafa"></path><g id="freepik--Arm--inject-110"><path d="M201,240.32c-1.42-1.8-3.29-3.44-3.75-5.77a3.92,3.92,0,0,1,.82-3.44,1.89,1.89,0,0,0,.46-.6,1.48,1.48,0,0,0,0-.63,4.21,4.21,0,0,1,.37-2.58,2.68,2.68,0,0,1,1.76-1.28,6.27,6.27,0,0,1,.34-3.92c.62-1.45,2.25-2.52,3.13-.78a13.56,13.56,0,0,1,1,2.7,30.55,30.55,0,0,1,1,7.06c.06,2.49.11,9.5-3.73,9.54C202,240.62,201.19,240.58,201,240.32Z" style="fill:#af6152"></path><path d="M219.92,130c-12.17,2.8-15.68,5.14-22.72,15.88-8.08,12.33-19.15,27.06-22.33,32.72-3.93,7-4.86,9.73,2.31,18.06,3.7,4.29,8.93,9.47,14.2,15.27,4.16,4.57,9.22,9.47,13.22,14.19a4,4,0,0,1,1.05,4.11,27.42,27.42,0,0,0-1,2.89,25.65,25.65,0,0,0,0,3.92c0,1.31-.56,2.78-1.79,3.24a3.74,3.74,0,0,1-1.88.08,13.05,13.05,0,0,0,3.43,2.23,5.49,5.49,0,0,0,4,.18c1.24-.49,2.22-1.55,3.53-1.84.7-.15,1.43-.06,2.14-.19a3.53,3.53,0,0,0,1.91-1c.79-.85,1.19-2.14,2.26-2.62a14.36,14.36,0,0,1,1.63-.4,3.57,3.57,0,0,0,2.17-2.48,9.7,9.7,0,0,0,.18-3.4,85.37,85.37,0,0,0-1.16-9.15,9.08,9.08,0,0,0-1.24-2.88c-.62-1-1.19-2.11-1.87-3.12-4.55-6.82-18.91-29.5-18.91-29.5l20.62-24S229.91,141.51,219.92,130Z" style="fill:#c8856a"></path><path d="M199.08,186.1c-4.8,4-11.76,3.85-14.3,3.5,5.88,4.4,15.6-1.45,15.6-1.45Z" style="fill:#af6152"></path></g><path d="M220.07,129.75s-.15-.17-1.64.19-9.78,1.06-15.53,7.68S186.41,160,181.41,167s-10.35,16.08-10.1,20,3.38,7.46,7.75,12.61,15.55,16.69,15.55,16.69a19.8,19.8,0,0,0,9.9-4,14.68,14.68,0,0,0,5.9-9.23l-10.53-17.24L221,161.9S231.11,140,220.07,129.75Z" style="fill:#5184D8"></path><path d="M220.07,129.75s-.15-.17-1.64.19-9.78,1.06-15.53,7.68S186.41,160,181.41,167s-10.35,16.08-10.1,20,3.38,7.46,7.75,12.61,15.55,16.69,15.55,16.69a19.8,19.8,0,0,0,9.9-4,14.68,14.68,0,0,0,5.9-9.23l-10.53-17.24L221,161.9S231.11,140,220.07,129.75Z" style="opacity:0.4"></path><path d="M199.88,185.81c-2-3.11-4-4.83-5.44-5.34,3.36.21,6.55,4.08,6.55,4.08Z" style="opacity:0.4"></path><g id="freepik--Head--inject-110"><g id="freepik--head--inject-110"><g id="freepik--head--inject-110"><path d="M236.08,110.05a7.36,7.36,0,0,1-6.78-2.17c-3.71-3.66-4.26-7.56-2.77-10.26,1.22-2.22,4.45-3.77,6.85-2.45,2.56,1.42,2.71,2.68,3.74,4.38s2.45-.09,1.26-7.1c1.74-8.38,5-11.42,8-14.58,4.57-4.71,8.91-4.39,11.85-4.55,2.47-1.08,4.92-1.81,8.31-.23s6.18,6.36,8,18.82c1.86,12.69-.3,21.88-3.1,24.19a14.59,14.59,0,0,1-9.69,3.42l.9,6.75s11.26,14.32-5.24,12.48a22.71,22.71,0,0,1-16-10l-2.7-20.83S238.52,109.45,236.08,110.05Z" style="fill:#c8856a"></path><path d="M253.78,93.64a2.14,2.14,0,0,1-2.57,1.62,2.17,2.17,0,0,1-1.52-2.64,2.11,2.11,0,1,1,4.09,1Z" style="fill:#263238"></path><path d="M270.22,87.12l-4.61-2a2.41,2.41,0,0,1,3.25-1.34A2.64,2.64,0,0,1,270.22,87.12Z" style="fill:#263238"></path><path d="M265.69,92.83a2.14,2.14,0,0,0,2.8,1.17,2.17,2.17,0,0,0,1.07-2.85,2.11,2.11,0,1,0-3.87,1.68Z" style="fill:#263238"></path><path d="M252.53,84.93,248.12,88a2.59,2.59,0,0,1,.56-3.72A2.82,2.82,0,0,1,252.53,84.93Z" style="fill:#263238"></path><path d="M254.12,104.76l7.13,1.58a3.66,3.66,0,0,1-4.7,2.68C254.59,108.51,253.75,106.76,254.12,104.76Z" style="fill:#af6152"></path><path d="M258.56,109a3.82,3.82,0,0,0-4.15-3c-.12,0-.23,0-.35.07a3.22,3.22,0,0,0,2.49,2.94A4,4,0,0,0,258.56,109Z" style="fill:#f28f8f"></path><polygon points="258.24 89.19 260.36 101.64 267.02 98.65 258.24 89.19" style="fill:#af6152"></polygon></g><path d="M238.38,92.45c2.18-8.34,8.63-17,19.64-18.53,5.51-.78,9.09,1.13,11.29,3.23a13.2,13.2,0,0,1,3.55,6.28,82,82,0,0,1,2.31,14.28,32.7,32.7,0,0,0-1.27-18c-3.27-9.24-9.81-10.61-18.16-10.3S237.14,79.07,238.38,92.45Z" style="fill:#263238"></path></g><path d="M239.71,98.94s-1.68-13.81,4.42-21c7.58-8.92,18.3-10.35,25.9-3.17,2.77,2.61,5.92,11.92,5.14,22.94a62.39,62.39,0,0,0,.71-14.21c-1.54-16.22-14.86-23.2-28-22.27s-22.62,7.74-26,19.56c-2.09,7.38-1.35,17.37-.6,27.39,1.07,14.23-2.9,21.76-2.9,21.76a30.77,30.77,0,0,1,3.43.73,16.92,16.92,0,0,0,9-.11c9-2.78,11-11.6,9.8-22.45Z" style="fill:#5184D8"></path><path d="M239.71,98.94s-1.68-13.81,4.42-21c7.58-8.92,18.3-10.35,25.9-3.17,2.77,2.61,5.92,11.92,5.14,22.94a62.39,62.39,0,0,0,.71-14.21c-1.54-16.22-14.86-23.2-28-22.27s-22.62,7.74-26,19.56c-2.09,7.38-1.35,17.37-.6,27.39,1.07,14.23-2.9,21.76-2.9,21.76a30.77,30.77,0,0,1,3.43.73,16.92,16.92,0,0,0,9-.11c9-2.78,11-11.6,9.8-22.45Z" style="fill:#fff;opacity:0.4"></path><path d="M240.86,109.76c.67,2.2,2.89,5.22,7.15,7.31,5.52,2.72,9.55,2.55,13.46,2.36,5-.23,8.27-2,10.24-4.09s3.67-9.09,3.57-14.27c2.23,12.6,4.25,13.66,2.34,19.16s-1.68,8.17-1.68,8.17,3.54,13.18-11.54,16.23-24.75-3.24-33.5-14.07C239.26,127.39,241.71,119.8,240.86,109.76Z" style="fill:#5184D8"></path><path d="M240.86,109.76c.67,2.2,2.89,5.22,7.15,7.31,5.52,2.72,9.55,2.55,13.46,2.36,5-.23,8.27-2,10.24-4.09s3.67-9.09,3.57-14.27c2.23,12.6,4.25,13.66,2.34,19.16s-1.68,8.17-1.68,8.17,3.54,13.18-11.54,16.23-24.75-3.24-33.5-14.07C239.26,127.39,241.71,119.8,240.86,109.76Z" style="fill:#fff;opacity:0.6000000000000001"></path><path d="M230.9,130.56c.69.85,1.39,1.67,2.09,2.46,10.82-3.71,9.68-17.79,8.26-22.28a6.87,6.87,0,0,1-.39-1C241.71,119.8,239.26,127.39,230.9,130.56Z" style="fill:#5184D8;opacity:0.6000000000000001"></path><path d="M241,115.49c1.52,2.75,6.36,10.31,17.92,10.75-5.3,2.64-14.31-1.2-18.65-6.1Z" style="fill:#5184D8;opacity:0.6000000000000001"></path><path d="M275.8,123.64c-4.43,10.56-19.43,13.38-33,8.59C250.08,139.25,272.08,141.43,275.8,123.64Z" style="fill:#5184D8;opacity:0.6000000000000001"></path></g></g><g id="freepik--Flag--inject-110"><rect x="229.51" y="163.44" width="18.55" height="11.6" transform="translate(-2.77 3.98) rotate(-0.95)" style="fill:#5184D8"></rect><rect x="229.51" y="167.41" width="18.55" height="3.67" transform="translate(-2.77 3.98) rotate(-0.95)" style="fill:#fff"></rect></g></g></g></svg>
