<svg xmlns="http://www.w3.org/2000/svg" viewBox="0 0 500 500"><g id="freepik--Desk--inject-269"><path d="M476.64,456.29c0,.14-103.28.26-230.66.26s-230.69-.12-230.69-.26S118.56,456,246,456,476.64,456.15,476.64,456.29Z" style="fill:#263238"></path></g><g id="freepik--Character--inject-269"><path d="M299.29,110.74c-12.84-2.79-26.6,1.52-36.88,9.71s-17.34,19.87-21.83,32.21-6.56,25.43-8.32,38.45q-4.37,32.4-6.24,65.08c-.15,2.73-.28,5.57.79,8.08,1.53,3.61,5.3,5.86,9.14,6.61s7.81.24,11.69-.28" style="fill:#263238"></path><path d="M316.23,116.18c10-.8,22.11,3,27.8,11.2,4.43,6.4,3.42,17.59,5,25.22,2.47,12.22,4.94,24.52,5.29,37,.38,13.7-1.82,27.33-4,40.86L343,275.32c-1.07,6.66-2.19,13.44-5.33,19.41S329,305.81,322.29,306.6c-6.12.72-12.28-2.34-16.41-6.92s-6.46-10.53-7.91-16.52" style="fill:#263238"></path><path d="M343.64,258.64c-.33-.16.16-1.91,1.27-5s2.85-7.37,4.79-12.76a119.93,119.93,0,0,0,5.36-19.14,63.68,63.68,0,0,0,0-23.77c-1.57-8.4-4.33-16.28-6.58-23.62a115.87,115.87,0,0,1-4.73-20.06,48,48,0,0,1,.09-14c.58-3.27,1.35-5,1.67-4.9.81.14-.5,7.24,1.87,18.32a151,151,0,0,0,5.66,19.17c2.47,7.19,5.45,15.19,7.15,24.16.42,2.24.71,4.49.91,6.72.08,1.12.17,2.22.17,3.33s.08,2.2,0,3.28a65.7,65.7,0,0,1-1.51,12.32,97.17,97.17,0,0,1-6.66,19.6,124.22,124.22,0,0,1-6.37,12.25C345.06,257.35,344,258.8,343.64,258.64Z" style="fill:#263238"></path><path d="M258.93,157c1.33-23.47,22.11-41.28,46.23-39.1C327.89,120,344.71,140,344,162.41c-.61,19.65-1.67,39.4-3.07,46.39-4.2,21.07-18.31,26.95-23.87,28.48a30,30,0,0,1-5.92.33h0a.14.14,0,0,0-.15.14l.27,25.13c-.78,16.29-12.45,28.78-29,28.09s-27-15.25-26.55-31.6Z" style="fill:#ffbe9d"></path><path d="M335,175a3.43,3.43,0,0,1-3.48,3.31,3.34,3.34,0,0,1-3.47-3.23,3.43,3.43,0,0,1,3.48-3.31A3.33,3.33,0,0,1,335,175Z" style="fill:#263238"></path><path d="M338,167.22c-.45.42-3-1.6-6.75-1.75s-6.55,1.58-6.94,1.12c-.19-.21.28-1,1.51-1.8a9.58,9.58,0,0,1,5.57-1.44,9.34,9.34,0,0,1,5.35,1.94C337.84,166.2,338.2,167,338,167.22Z" style="fill:#263238"></path><path d="M300.05,174.13a3.42,3.42,0,0,1-3.47,3.31,3.33,3.33,0,0,1-3.47-3.23,3.44,3.44,0,0,1,3.47-3.31A3.33,3.33,0,0,1,300.05,174.13Z" style="fill:#263238"></path><path d="M301.22,166.37c-.45.43-3-1.59-6.75-1.74s-6.54,1.58-6.93,1.11c-.19-.2.27-1,1.5-1.79a9.6,9.6,0,0,1,5.57-1.45,9.29,9.29,0,0,1,5.35,1.95C301.07,165.36,301.44,166.18,301.22,166.37Z" style="fill:#263238"></path><path d="M313.79,194.18c0-.21,2.33-.5,6.11-.82,1-.06,1.87-.21,2.05-.84a4.74,4.74,0,0,0-.53-2.81q-1.23-3.45-2.56-7.26c-3.55-10.33-6.09-18.81-5.66-18.95s3.64,8.14,7.19,18.47c.85,2.55,1.67,5,2.44,7.3.33,1.08.9,2.32.36,3.7a2.37,2.37,0,0,1-1.62,1.31,6.46,6.46,0,0,1-1.62.15C316.15,194.48,313.8,194.39,313.79,194.18Z" style="fill:#263238"></path><path d="M311,237.6s-14.47.56-32.13-10.85c0,0,5,19,32.21,17.62Z" style="fill:#eb996e"></path><path d="M311.89,203a6.84,6.84,0,0,0-5.95-2.71,6.21,6.21,0,0,0-4.33,2.06,3.79,3.79,0,0,0-.45,4.37c1,1.44,3,1.85,4.85,1.42a14,14,0,0,0,4.88-2.6,4.09,4.09,0,0,0,1.11-1,1.21,1.21,0,0,0,0-1.37" style="fill:#eb996e"></path><path d="M302.7,196.27c.61,0,.47,4,3.84,6.95s7.71,2.72,7.72,3.28c0,.25-1,.73-2.82.7a10.24,10.24,0,0,1-6.45-2.5,8.66,8.66,0,0,1-3-5.82C301.93,197.2,302.42,196.23,302.7,196.27Z" style="fill:#263238"></path><path d="M303.13,160c-.4,1-4.12.36-8.52.69s-8,1.37-8.54.45c-.25-.44.4-1.36,1.87-2.26a14.3,14.3,0,0,1,6.39-1.91,14.46,14.46,0,0,1,6.61,1C302.53,158.72,303.31,159.54,303.13,160Z" style="fill:#263238"></path><path d="M336.88,159.65c-.68.81-3.23-.16-6.32-.33s-5.74.32-6.31-.58c-.25-.43.19-1.25,1.37-2a8.84,8.84,0,0,1,5.19-1.16,8.94,8.94,0,0,1,5,1.89C336.86,158.38,337.19,159.26,336.88,159.65Z" style="fill:#263238"></path><path d="M305.82,247.54s48.77,18.85,54.68,22.23,7.83,5.77,7.83,5.77L334.05,308H268.21l-50.37-34.33,8.78-22.34L254.7,245" style="fill:#ffbe9d"></path><path d="M200.92,436.18a21,21,0,0,1-1.28-6.32,21.39,21.39,0,0,1,.16-6.44c.15,0,0,2.88.36,6.4S201.07,436.15,200.92,436.18Z" style="fill:#eb996e"></path><path d="M368.33,275.54l-9,5.94-2.18,158.91,42.89-24.28S378.77,278.84,368.33,275.54Z" style="fill:#CB2C17"></path><path d="M226.62,251.37s-33,2.2-40.65,13.73-32.4,121.4-32.4,121.4S140.4,406.17,139.33,411c-1.45,6.51-2.79,19.52-2.79,19.52l8.21,12L148,445.8s-2.16-36.85,36.29-26.1l11-1,11-66.09,5.45,53.8L198,456.29l159.15-.09,4.34-176.12S340.72,291,318.9,288.17C306.08,286.52,245.3,270.6,226.62,251.37Z" style="fill:#CB2C17"></path><path d="M194.24,413.07c-.05,0-.35-.77-1-2.14a28.7,28.7,0,0,0-3.44-5.42,29.19,29.19,0,0,0-7-6.33,27,27,0,0,0-22.29-3.43,29.3,29.3,0,0,0-8.61,3.93,28.48,28.48,0,0,0-4.9,4.13c-1,1.11-1.57,1.77-1.61,1.74a3.51,3.51,0,0,1,.35-.5,15.08,15.08,0,0,1,1.11-1.38,25.94,25.94,0,0,1,4.84-4.29,28.79,28.79,0,0,1,8.69-4.09A27.08,27.08,0,0,1,183,398.77a28.87,28.87,0,0,1,7.06,6.52,26.36,26.36,0,0,1,3.33,5.55,14.41,14.41,0,0,1,.64,1.64A2.16,2.16,0,0,1,194.24,413.07Z" style="fill:#263238"></path><path d="M194.75,408.76a12.6,12.6,0,0,1-.35-1.64,39.13,39.13,0,0,0-1.2-4.39,33.18,33.18,0,0,0-20.3-20.68,35.81,35.81,0,0,0-4.37-1.28,11.65,11.65,0,0,1-1.63-.39,1.28,1.28,0,0,1,.43,0c.29,0,.71.07,1.24.17A30.36,30.36,0,0,1,173,381.7a32.23,32.23,0,0,1,20.53,20.92,29.94,29.94,0,0,1,1,4.47c.09.53.11,1,.14,1.24S194.77,408.76,194.75,408.76Z" style="fill:#263238"></path><path d="M206.34,352.65a2.25,2.25,0,0,1-.31-.45l-.8-1.34c-.69-1.17-1.66-2.88-2.84-5-2.36-4.24-5.52-10.15-9-16.69s-6.63-12.45-9-16.68c-1.16-2.07-2.11-3.76-2.82-5-.3-.55-.55-1-.76-1.36a1.79,1.79,0,0,1-.23-.5,3.3,3.3,0,0,1,.32.44l.85,1.32c.72,1.15,1.74,2.82,3,4.93,2.45,4.19,5.67,10.07,9.14,16.61l8.85,16.77,2.69,5.07c.29.56.52,1,.72,1.39A2.05,2.05,0,0,1,206.34,352.65Z" style="fill:#263238"></path><path d="M204.22,293.87a4.3,4.3,0,0,1,0,.78c0,.56,0,1.31,0,2.24,0,1.95,0,4.77.11,8.26.12,7,.48,16.59,1.06,27.21s1.29,20.23,1.85,27.18c.28,3.43.51,6.23.67,8.23.07.93.13,1.67.17,2.23a3.92,3.92,0,0,1,0,.79,4.63,4.63,0,0,1-.13-.78l-.27-2.22c-.22-1.94-.52-4.75-.84-8.22-.65-6.94-1.41-16.55-2-27.18s-.88-20.26-.91-27.24c0-3.48,0-6.31.05-8.26,0-.93.06-1.68.08-2.24A3.74,3.74,0,0,1,204.22,293.87Z" style="fill:#263238"></path><path d="M310.61,441.33a.84.84,0,0,1-.27-.09l-.77-.31-2.94-1.25c-1.28-.54-2.84-1.22-4.62-2.08s-3.83-1.76-6-2.91l-3.47-1.77c-1.21-.62-2.43-1.32-3.71-2-2.58-1.37-5.26-3-8.09-4.64-5.61-3.41-11.66-7.36-17.78-11.83s-11.69-9.08-16.62-13.41c-2.44-2.21-4.77-4.28-6.85-6.33-1.05-1-2.08-2-3-2.94L233.7,389c-1.76-1.75-3.25-3.43-4.59-4.88s-2.47-2.72-3.37-3.78l-2.07-2.43-.53-.64A1.12,1.12,0,0,1,223,377a1.17,1.17,0,0,1,.21.2l.57.6,2.14,2.37c.93,1,2.06,2.3,3.43,3.71s2.87,3.09,4.64,4.82l2.75,2.76c1,.95,2,1.9,3,2.91,2.09,2,4.43,4.09,6.86,6.28,4.95,4.3,10.53,8.86,16.62,13.35s12.13,8.42,17.72,11.84c2.82,1.67,5.48,3.29,8,4.67,1.28.7,2.5,1.41,3.7,2l3.45,1.8c2.19,1.17,4.22,2.11,6,3s3.3,1.59,4.57,2.15l2.9,1.34.75.36Z" style="fill:#263238"></path><path d="M161.63,391.11l52.84,57.27,4,8.51L210,452.68,156.36,396a3.61,3.61,0,0,1,.33-5.27h0A3.6,3.6,0,0,1,161.63,391.11Z" style="fill:#263238"></path><path d="M359.22,328.29a1.43,1.43,0,0,1,0,.3v.88c0,.81,0,1.94-.05,3.38-.07,3-.17,7.2-.3,12.42-.25,10.51-.6,25-1,41s-.54,30.46-.73,41c-.09,5.22-.17,9.45-.22,12.42,0,1.44-.07,2.57-.09,3.38q0,.54,0,.87a.15.15,0,1,1-.06,0c0-.22,0-.51,0-.87,0-.81,0-1.94,0-3.38,0-3,0-7.21.06-12.42.08-10.49.24-25,.58-41s.78-30.48,1.13-41c.2-5.22.35-9.45.46-12.42.07-1.43.12-2.56.16-3.37l.05-.88A1.4,1.4,0,0,1,359.22,328.29Z" style="fill:#263238"></path><g style="opacity:0.30000000000000004"><path d="M227.81,382.54s24,16.61,37.6,22,27.56,9.87,40.65,16.34c3.84,1.9,8.2,5.13,7.41,9.34-.48,2.57-2.91,4.43-5.45,5.05a20.7,20.7,0,0,1-7.8-.14l-3.35-.21S254.3,413.07,227.81,382.54Z"></path></g><path d="M390.7,397.75a16.22,16.22,0,0,1-1.79.25,41.59,41.59,0,0,0-4.84.94,37.72,37.72,0,0,0-24.57,19.69,40.45,40.45,0,0,0-2,4.52,15.62,15.62,0,0,1-.64,1.7,1.47,1.47,0,0,1,.08-.46c.08-.3.18-.75.37-1.3a33.29,33.29,0,0,1,1.83-4.62A36.72,36.72,0,0,1,384,398.58a34,34,0,0,1,4.9-.78c.59-.06,1-.05,1.35-.07A1.7,1.7,0,0,1,390.7,397.75Z" style="fill:#263238"></path><g style="opacity:0.30000000000000004"><path d="M356.81,423.56a38,38,0,0,1,23.31-29.87,8,8,0,0,1,4.32-.75,3.22,3.22,0,0,1,2.79,3c-.06,2.16-2.67,3.11-4.72,3.76-5.7,1.81-10.66,5.49-14.8,9.8a108.41,108.41,0,0,0-10.88,14.23"></path></g><g style="opacity:0.30000000000000004"><path d="M195.15,413.85a36,36,0,0,0-23.74-30.59,11.56,11.56,0,0,0-4.78-.78,5,5,0,0,0-4,2.47c-.92,1.87-.11,4.23,1.38,5.68a14.08,14.08,0,0,0,5.5,2.87c5.59,1.88,11.43,3.48,16.19,7s6.18,7.72,9.43,13.38"></path></g><path d="M374.93,288l-.44.27-1.33.76L371,290.24c-.86.47-1.84,1-3,1.58A135,135,0,0,1,348,300l-3.34,1.06-3.54.95c-1.2.31-2.42.68-3.69.95l-3.86.83-2,.43-2,.34-4.17.69c-1.41.21-2.86.35-4.32.53s-2.94.37-4.44.45l-4.57.32-4.69.13-2.38,0-2.41-.05c-1.61-.06-3.24,0-4.88-.16a140.89,140.89,0,0,1-20.15-2.58A149.17,149.17,0,0,1,258,298.47c-6.21-2.15-12.09-4.51-17.65-6.83-11.11-4.68-21-9.1-29.53-12.38s-15.48-5.72-20.52-6.46a31,31,0,0,0-5.84-.39c-.67,0-1.17.06-1.52.09s-.52,0-.52,0a14.42,14.42,0,0,1,2-.22,28.84,28.84,0,0,1,5.87.29c5.08.69,12.11,3.09,20.63,6.32s18.46,7.63,29.57,12.28c5.57,2.3,11.44,4.65,17.63,6.79a149.7,149.7,0,0,0,19.52,5.43A141.06,141.06,0,0,0,297.74,306c1.63.12,3.26.11,4.86.16l2.4.06,2.37,0,4.67-.12,4.56-.31c1.5-.08,3-.26,4.43-.43s2.89-.32,4.31-.52l4.15-.68,2-.33,2-.42,3.86-.82c1.26-.26,2.48-.63,3.68-.93l3.53-.93,3.34-1a140.87,140.87,0,0,0,20-8c1.17-.52,2.15-1.08,3-1.54l2.19-1.17,1.35-.7Z" style="fill:#fafafa"></path><path d="M203.46,307.36a5.79,5.79,0,0,1-1.09-.59L199.49,305a71.64,71.64,0,0,0-9.81-5.16,32.32,32.32,0,0,0-10.7-2.51c-2.84-.12-4.58.25-4.59.14a5.13,5.13,0,0,1,1.21-.27A19.34,19.34,0,0,1,179,297a30.06,30.06,0,0,1,10.89,2.4,60,60,0,0,1,9.81,5.33c1.19.78,2.14,1.43,2.79,1.89A5.6,5.6,0,0,1,203.46,307.36Z" style="fill:#fafafa"></path><path d="M359.92,333.33l-.36.2-1.09.57-1.77.89-2.46,1.12a90.24,90.24,0,0,1-16.39,5.34,114.79,114.79,0,0,1-25.41,2.75A162.87,162.87,0,0,1,281.3,341c-10.92-2.11-21.14-5-30.36-7.7s-17.46-5.45-24.35-7.82-12.41-4.4-16.21-5.84L206,317.94l-1.13-.46a2.24,2.24,0,0,1-.38-.17,2.08,2.08,0,0,1,.4.12l1.15.41,4.41,1.59c3.82,1.38,9.37,3.36,16.26,5.68s15.14,5,24.37,7.71,19.43,5.55,30.32,7.65a164.54,164.54,0,0,0,31,3.25,115.92,115.92,0,0,0,25.33-2.63,95.23,95.23,0,0,0,16.39-5.16l2.48-1.08,1.79-.85,1.1-.51A1.57,1.57,0,0,1,359.92,333.33Z" style="fill:#fafafa"></path><path d="M381.3,317.2a28.54,28.54,0,0,1-3.4,1c-2.11.6-5,1.48-8.13,2.69s-5.85,2.51-7.82,3.49a27.31,27.31,0,0,1-3.21,1.53,3.49,3.49,0,0,1,.79-.55c.52-.33,1.29-.78,2.25-1.31a66.57,66.57,0,0,1,7.8-3.65,67.73,67.73,0,0,1,8.22-2.56c1.07-.26,1.95-.44,2.55-.55A4.19,4.19,0,0,1,381.3,317.2Z" style="fill:#fafafa"></path><path d="M204.35,351.47a10.52,10.52,0,0,1-1.43-.92c-.45-.31-1-.69-1.66-1.09s-1.38-.91-2.24-1.37A63.12,63.12,0,0,0,193,345a60.89,60.89,0,0,0-16-4.66,63.59,63.59,0,0,0-6.8-.62c-1-.06-1.85,0-2.63,0s-1.44,0-2,0a9.28,9.28,0,0,1-1.7,0,12.69,12.69,0,0,1,1.69-.2c.54-.06,1.21-.11,2-.12s1.66-.08,2.64,0a57.37,57.37,0,0,1,6.86.51,65.1,65.1,0,0,1,8.24,1.76,61.48,61.48,0,0,1,7.89,2.95,53.12,53.12,0,0,1,6.06,3.25c.85.49,1.57,1,2.21,1.45s1.19.83,1.62,1.17A11.23,11.23,0,0,1,204.35,351.47Z" style="fill:#fafafa"></path><path d="M357.81,378.27l-.38.13-1.12.31c-1,.25-2.44.7-4.34,1.12a139.23,139.23,0,0,1-16.26,2.79,166.24,166.24,0,0,1-24.44.92,231.37,231.37,0,0,1-29.79-3.06c-21-3.5-39.5-9-52.81-13-6.66-2-12-3.75-15.73-4.94l-4.26-1.39-1.11-.38-.37-.14a1.74,1.74,0,0,1,.39.09l1.12.33,4.29,1.29,15.77,4.79c13.34,3.94,31.84,9.34,52.79,12.84a238.14,238.14,0,0,0,29.73,3.09,172.79,172.79,0,0,0,24.38-.8,150.91,150.91,0,0,0,16.25-2.63c1.91-.38,3.36-.8,4.36-1l1.14-.26Z" style="fill:#fafafa"></path><path d="M388.86,351.78a6.89,6.89,0,0,1-1.21.29l-3.34.67c-2.8.59-6.66,1.53-10.83,2.85s-7.85,2.8-10.48,3.94l-3.11,1.38a5.52,5.52,0,0,1-1.16.46,6.09,6.09,0,0,1,1.07-.65c.71-.39,1.75-.91,3.05-1.53a86.95,86.95,0,0,1,21.39-6.81c1.42-.25,2.57-.42,3.37-.51A5.58,5.58,0,0,1,388.86,351.78Z" style="fill:#fafafa"></path><path d="M199.72,391.8a19,19,0,0,1-1.07-1.66,40.17,40.17,0,0,0-3.15-4.31,37.8,37.8,0,0,0-31.09-13.61,40,40,0,0,0-5.31.6,18.6,18.6,0,0,1-1.94.34,2.12,2.12,0,0,1,.48-.17c.33-.08.8-.24,1.42-.37a34.22,34.22,0,0,1,5.33-.77,36.89,36.89,0,0,1,31.39,13.75,35,35,0,0,1,3.05,4.44c.32.54.53,1,.69,1.29A1.56,1.56,0,0,1,199.72,391.8Z" style="fill:#fafafa"></path><path d="M263.17,415c0,.14-11.46-1.86-25.55-4.47s-25.48-4.83-25.45-5,11.46,1.86,25.55,4.46S263.2,414.89,263.17,415Z" style="fill:#fafafa"></path><path d="M356,424.09a4.72,4.72,0,0,1-.81.07l-2.32.11c-2,.09-4.92.18-8.53.26-7.2.16-17.16.22-28.15,0s-20.94-.74-28.13-1.22c-3.6-.23-6.51-.45-8.51-.63l-2.31-.21a4.11,4.11,0,0,1-.81-.11,7.08,7.08,0,0,1,.81,0l2.32.11,8.52.47c7.19.38,17.13.81,28.12,1.05s20.94.24,28.14.17l8.53-.09h2.32A4.22,4.22,0,0,1,356,424.09Z" style="fill:#fafafa"></path><path d="M395.74,389.07a8.15,8.15,0,0,1-1.58.06c-1,0-2.49,0-4.3.15s-4,.32-6.33.68a65.9,65.9,0,0,0-15,4.21c-2.21.93-4.17,1.85-5.77,2.71S359.9,398.46,359,399a9.71,9.71,0,0,1-1.38.77,9.19,9.19,0,0,1,1.27-.94c.83-.59,2.09-1.37,3.68-2.27a59.7,59.7,0,0,1,5.75-2.82,63.94,63.94,0,0,1,7.42-2.61,65.94,65.94,0,0,1,7.68-1.63,57.44,57.44,0,0,1,6.38-.58c1.83-.06,3.31-.05,4.32,0A8.08,8.08,0,0,1,395.74,389.07Z" style="fill:#fafafa"></path><path d="M194.89,419.47s-.44-.82-1.33-2.24a22.52,22.52,0,0,0-4.67-5.26,27.55,27.55,0,0,0-9.15-5,31.12,31.12,0,0,0-12.66-1.3,39.94,39.94,0,0,0-12.27,3.55,54.22,54.22,0,0,0-9,5.37c-2.43,1.76-4.29,3.32-5.55,4.43-.64.54-1.11,1-1.45,1.27a4.26,4.26,0,0,1-.52.43,2.57,2.57,0,0,1,.45-.5c.32-.31.77-.79,1.39-1.35a62.27,62.27,0,0,1,5.46-4.58,52.4,52.4,0,0,1,9-5.5A39.51,39.51,0,0,1,167,405.2a31.36,31.36,0,0,1,12.86,1.36,27.46,27.46,0,0,1,9.24,5.13,21.25,21.25,0,0,1,4.6,5.43,14.93,14.93,0,0,1,.9,1.73A2.68,2.68,0,0,1,194.89,419.47Z" style="fill:#fafafa"></path><path d="M309.64,456.2h-.28l-.81,0-3.13-.21c-2.72-.17-6.65-.51-11.5-1s-10.61-1.19-17-2.11-13.37-2.11-20.66-3.57-14.2-3.12-20.43-4.74-11.81-3.28-16.45-4.77c-2.33-.71-4.41-1.44-6.25-2s-3.41-1.17-4.69-1.65L205.51,435l-.76-.3-.25-.11.27.06.78.25,3,1c1.29.45,2.87,1,4.71,1.56s3.93,1.29,6.27,2c4.65,1.44,10.23,3,16.46,4.66s13.13,3.21,20.41,4.69,14.26,2.64,20.63,3.61,12.12,1.68,17,2.21,8.76.93,11.47,1.17l3.13.3.81.09Z" style="fill:#fafafa"></path><path d="M183.76,415.11l14.13,4.53,5.26-.9,8.9,2.45a6.58,6.58,0,0,1,4.81,6.87,38.74,38.74,0,0,1-1.21,6.89c-2.17,8.25-5.8,8.07-9.6,7s-5.56-4.19-5.86-9.07l-9-4.92Z" style="fill:#ffbe9d"></path><path d="M200.08,433.1a9.46,9.46,0,0,1-3.47-4.23,9.31,9.31,0,0,1-1-5.37,24.48,24.48,0,0,0,1.49,5.15A25.77,25.77,0,0,0,200.08,433.1Z" style="fill:#eb996e"></path><path d="M166.78,414.21s-11.63,1.44-14.88,7-7.15,21.27-7.15,21.27l11,12.9s44.73,1.86,46.13,0-.49-3.91-.49-3.91,5.5,2.47,7.83.84,3-5.73,2.29-7.73c-1.43-3.75-4.07-7.5-10.12-10.36S184,423.75,184,423.75s-8.37-8.37-10-9.54S166.78,414.21,166.78,414.21Z" style="fill:#ffbe9d"></path><path d="M201.41,451.47a1.86,1.86,0,0,1-.48-.12l-1.33-.45-4.87-1.75c-4.11-1.49-9.77-3.58-16-5.93-3.11-1.16-6.13-2.46-8.3-4.47a21.9,21.9,0,0,1-4.59-6.2,47,47,0,0,1-2.11-4.73c-.22-.58-.39-1-.49-1.32a1.57,1.57,0,0,1-.14-.48s.1.14.23.44.35.77.58,1.28c.51,1.11,1.22,2.73,2.25,4.64a22.23,22.23,0,0,0,4.59,6c2.11,1.93,5,3.19,8.16,4.34,6.24,2.35,11.88,4.5,16,6.08l4.81,1.9,1.3.54A1.74,1.74,0,0,1,201.41,451.47Z" style="fill:#eb996e"></path><path d="M178.1,456.29a11,11,0,0,1-2.29-1c-1.38-.67-3.26-1.65-5.27-2.84s-3.78-2.36-5-3.25a10.89,10.89,0,0,1-1.94-1.55,12.78,12.78,0,0,1,2.14,1.24c1.29.81,3.08,1.93,5.08,3.11s3.85,2.22,5.18,3A12.8,12.8,0,0,1,178.1,456.29Z" style="fill:#eb996e"></path><path d="M153.7,446.66s-.25-.32,0-1a10.7,10.7,0,0,1,1.46-2.13,2.24,2.24,0,0,0,.38-1.56,7.25,7.25,0,0,0-.62-1.86,20,20,0,0,1-1.44-4.5,8.72,8.72,0,0,1,.44-4.72,5.44,5.44,0,0,1,2.62-2.87,4.36,4.36,0,0,1,2.57-.45,1.71,1.71,0,0,1,.91.3s-.33-.07-.92-.1a4.51,4.51,0,0,0-2.39.58,5.16,5.16,0,0,0-2.34,2.72,8.26,8.26,0,0,0-.37,4.46,20.71,20.71,0,0,0,1.36,4.39,7.49,7.49,0,0,1,.61,2,2.52,2.52,0,0,1-.51,1.8,15,15,0,0,0-1.57,2A2.28,2.28,0,0,0,153.7,446.66Z" style="fill:#eb996e"></path><path d="M179.71,426.35a12.36,12.36,0,0,0-7.18,7.19,3.35,3.35,0,0,1,.35-1.54,9.25,9.25,0,0,1,2.1-3.2,9.37,9.37,0,0,1,3.19-2.1A3.35,3.35,0,0,1,179.71,426.35Z" style="fill:#eb996e"></path><path d="M211.3,442.34s-.21.15-.64.29a7,7,0,0,1-1.89.33,8.39,8.39,0,0,1-8.82-7.59,7.29,7.29,0,0,1,0-1.93,1.88,1.88,0,0,1,.19-.68c.1,0-.11,1,.13,2.56a8.45,8.45,0,0,0,8.45,7.27A23.85,23.85,0,0,0,211.3,442.34Z" style="fill:#eb996e"></path><path d="M361.58,427.75l23.5-15a20.32,20.32,0,0,1,5.6,0,6.18,6.18,0,0,1,4,2.91l5.37.45,14.11,12.76,7.35,1.12,1.38,2.68-2.69,10.19s-6.72,6.86-11.64,4.16l-6.27.63-5.59-.63s.44,5.35-1.57,5.35-5.37-.67-6.27-2.24a54.29,54.29,0,0,1-2.46-6.26l-5.37,5.59s-5,5.41-7.84,2.91c-2.43-2.11-2.69-3.35-2.69-3.35h0s-4,.67-6.25-.68-5.83-.67-6.73-5.48S357.22,430.53,361.58,427.75Z" style="fill:#ffbe9d"></path><path d="M387.72,447.47a3.82,3.82,0,0,1-.46-.92,19.43,19.43,0,0,1-.83-2.67,81.68,81.68,0,0,1-1.28-9.11,25.41,25.41,0,0,0-2.4-8.72,29,29,0,0,0-2.07-3.15s.31.21.76.69a12.64,12.64,0,0,1,1.63,2.29,23.29,23.29,0,0,1,2.6,8.83c.42,3.57.63,6.8,1.12,9.09S387.8,447.44,387.72,447.47Z" style="fill:#eb996e"></path><path d="M398.64,425.08c.08,0-.37,1.26-.93,3.3a45.47,45.47,0,0,0-1.44,8.1,46.23,46.23,0,0,0,.1,8.22c.22,2.1.47,3.39.38,3.41a3.38,3.38,0,0,1-.27-.89,23,23,0,0,1-.47-2.47,37.21,37.21,0,0,1,1.35-16.47,23.47,23.47,0,0,1,.86-2.37A3,3,0,0,1,398.64,425.08Z" style="fill:#eb996e"></path><path d="M399.73,436.58a9.62,9.62,0,0,0-2.31,1.47,9.49,9.49,0,0,0-1.42,2.34c-.07,0-.12-.34,0-.87a4.13,4.13,0,0,1,2.85-2.91C399.38,436.47,399.72,436.51,399.73,436.58Z" style="fill:#eb996e"></path><path d="M403.75,429.89a34.35,34.35,0,0,1-2.32,3.57,32.29,32.29,0,0,1-2.35,3.55,12.46,12.46,0,0,1,1.91-3.84A12,12,0,0,1,403.75,429.89Z" style="fill:#eb996e"></path><path d="M402.08,431.29c0,.13-1.36-.52-2.1-2.06a3.53,3.53,0,0,1-.34-2.93,17.46,17.46,0,0,0,.8,2.7A18.43,18.43,0,0,0,402.08,431.29Z" style="fill:#eb996e"></path><path d="M407.54,447.12a22.93,22.93,0,0,1,2.12-2.13,15.21,15.21,0,0,0,4-5.86,14.8,14.8,0,0,0,.32-7.06,28.4,28.4,0,0,1-.45-3,12.76,12.76,0,0,1,.81,2.91,13.89,13.89,0,0,1-.18,7.29,14.33,14.33,0,0,1-4.21,6A13.6,13.6,0,0,1,407.54,447.12Z" style="fill:#eb996e"></path><path d="M415.23,445.41s-.47-.31-.91-1.09a5.68,5.68,0,0,1,.73-6.49c.59-.66,1.09-.9,1.13-.85s-.36.41-.84,1.08a6.16,6.16,0,0,0-.69,6.1C415,444.93,415.3,445.35,415.23,445.41Z" style="fill:#eb996e"></path><path d="M378.2,437.66a33.48,33.48,0,0,0,2.33-5.86,34.33,34.33,0,0,0,.66-6.27,5.22,5.22,0,0,1,.29,1.86,15.55,15.55,0,0,1-.45,4.53,15.89,15.89,0,0,1-1.7,4.23A5.34,5.34,0,0,1,378.2,437.66Z" style="fill:#eb996e"></path><path d="M376.73,436.14a13.5,13.5,0,0,1-.8-3.68,13.71,13.71,0,0,1-.28-3.75,14,14,0,0,1,.8,3.68A14.19,14.19,0,0,1,376.73,436.14Z" style="fill:#eb996e"></path><path d="M379.41,450.26a8.5,8.5,0,0,0,1.76-2.71,7.19,7.19,0,0,0,.39-3.43,6.29,6.29,0,0,0-1.9-3.7c-1.09-1.06-2.36-1.88-3.37-2.81a20.92,20.92,0,0,1-2.48-2.64,18,18,0,0,1-1.38-2,2.65,2.65,0,0,1-.39-.8c.07,0,.73,1,2,2.58a24.86,24.86,0,0,0,2.52,2.52c1,.89,2.26,1.68,3.41,2.8a6.55,6.55,0,0,1,2,4,7.26,7.26,0,0,1-.51,3.63,6.11,6.11,0,0,1-1.38,2A2,2,0,0,1,379.41,450.26Z" style="fill:#eb996e"></path><path d="M375.28,443.4c0,.08-.44.27-1.09.71a6.21,6.21,0,0,0-2.77,5.15,10.36,10.36,0,0,1,0,1.3,2.26,2.26,0,0,1-.38-1.29A5.62,5.62,0,0,1,374,443.8C374.74,443.41,375.26,443.34,375.28,443.4Z" style="fill:#eb996e"></path><path d="M285.75,144.66c-8.67,16.7-9.65,36.28-9,55.09s2.84,37.79-.24,56.36c-1.21,7.3-3.23,14.69-2.07,22,.67,4.3,2.42,8.36,3.31,12.62s.77,9.07-1.9,12.51-7.55,4.77-11.86,4-8.11-3.44-11.15-6.6c-6.63-6.91-10.11-16.36-11.42-25.85s-.63-19.13.06-28.68q2.7-37.28,5.38-74.54c.78-10.74,1.61-21.73,6-31.59,4.53-10.29,12.74-18.74,22.41-24.48,11.57-6.88,26.54-9.87,38.47-3.63,4,2.09,7.81,6.08,6.86,10.47-.74,3.47-4.13,5.62-7.21,7.38l-30.53,17.37" style="fill:#263238"></path><path d="M270.36,278.85c-.33-.17.31-2.1,1.61-5.47s3.24-8.22,5.25-14.29a96.73,96.73,0,0,0,4.65-21.67c.76-8.24-.33-17.4-2.06-27s-3.73-19-4.32-27.77a67.83,67.83,0,0,1,2.1-23.26,38,38,0,0,1,7.21-14.06c.63-.7,1.19-1.3,1.69-1.82a15.8,15.8,0,0,1,1.38-1.17c.78-.6,1.25-.85,1.37-.72s-.08.62-.59,1.43l-1,1.45c-.35.59-.76,1.26-1.24,2a45.38,45.38,0,0,0-5.28,13.78,72.4,72.4,0,0,0-.89,22c.8,8.3,2.9,17.44,4.67,27.24s2.79,19.56,1.7,28.41a85.36,85.36,0,0,1-6,22.48,108.17,108.17,0,0,1-6.89,13.9C271.91,277.4,270.67,279,270.36,278.85Z" style="fill:#263238"></path><path d="M239.64,154.55a4.64,4.64,0,0,1,.8-.3l2.32-.75c1-.31,2.25-.71,3.68-1.2s3.05-1,4.83-1.69c3.57-1.27,7.77-2.92,12.38-4.9s9.58-4.35,14.71-7,9.86-5.5,14.11-8.16,8-5.23,11-7.46c1.56-1.08,2.91-2.14,4.12-3s2.24-1.69,3.07-2.35l1.93-1.49a6.46,6.46,0,0,1,.7-.5,4.6,4.6,0,0,1-.63.58l-1.88,1.57c-.81.68-1.81,1.51-3,2.42s-2.54,2-4.08,3.11c-3.05,2.27-6.77,4.84-11,7.56s-9,5.5-14.13,8.22-10.14,5-14.76,7S255,149.73,251.39,151c-1.78.65-3.43,1.15-4.86,1.61s-2.69.84-3.71,1.13l-2.35.65A4.74,4.74,0,0,1,239.64,154.55Z" style="fill:#455a64"></path><path d="M239.43,158.28a4.65,4.65,0,0,1,.85-.17l2.47-.37,1.78-.25,2.11-.38c1.51-.29,3.24-.55,5.12-1l3-.67c1-.24,2.08-.56,3.18-.85,2.21-.55,4.51-1.33,6.95-2.1a137.58,137.58,0,0,0,15.36-6.32,137.41,137.41,0,0,0,14.39-8.3c2.1-1.46,4.12-2.81,5.91-4.21.9-.7,1.79-1.34,2.61-2l2.34-1.94c1.51-1.2,2.78-2.41,3.93-3.42l1.59-1.44,1.29-1.25c.75-.73,1.35-1.31,1.8-1.73a6,6,0,0,1,.65-.58,6,6,0,0,1-.58.65l-1.73,1.8L311.14,125c-.47.46-1,.94-1.56,1.47-1.14,1-2.39,2.27-3.9,3.5l-2.32,2c-.81.68-1.7,1.33-2.6,2-1.78,1.43-3.8,2.79-5.9,4.27a132.77,132.77,0,0,1-14.43,8.37A133.91,133.91,0,0,1,265,152.93c-2.45.76-4.77,1.52-7,2.06-1.11.28-2.17.59-3.2.82l-3,.64c-1.89.44-3.63.68-5.14,1-.76.12-1.47.25-2.12.34l-1.79.21-2.48.27C239.73,158.27,239.43,158.29,239.43,158.28Z" style="fill:#455a64"></path><path d="M254.13,289.35s0-.11-.07-.34-.09-.58-.16-1c-.13-.89-.34-2.2-.51-3.89a127.58,127.58,0,0,1-.76-14.39c0-6.09.35-13.34,1.1-21.35s1.82-16.79,2.86-26c2.16-18.43,4.11-35.11,5.53-47.22.72-6,1.32-10.89,1.73-14.3.21-1.66.38-3,.5-3.88,0-.42.1-.76.14-1a1.48,1.48,0,0,1,.06-.34,1.33,1.33,0,0,1,0,.35c0,.25-.05.59-.09,1-.1.92-.23,2.23-.4,3.9-.37,3.41-.91,8.29-1.57,14.32-1.38,12.11-3.27,28.79-5.37,47.23-1.05,9.22-2.13,18-2.9,26S253,263.65,253,269.73a140.93,140.93,0,0,0,.59,14.37c.14,1.69.32,3,.42,3.89,0,.42.08.76.11,1A1.33,1.33,0,0,1,254.13,289.35Z" style="fill:#455a64"></path><path d="M267.21,233.81a4.7,4.7,0,0,1-.09-.84c0-.59-.09-1.4-.16-2.41-.12-2.09-.26-5.12-.4-8.87-.27-7.49-.47-17.85-.31-29.3s.64-21.8,1.12-29.28c.24-3.74.46-6.77.65-8.86.09-1,.16-1.8.22-2.4a4.4,4.4,0,0,1,.11-.84,4.28,4.28,0,0,1,0,.85l-.12,2.41c-.12,2.14-.28,5.16-.48,8.86-.39,7.49-.81,17.83-1,29.27s0,21.79.16,29.28c.1,3.71.18,6.73.24,8.87,0,1,0,1.82.05,2.42A6.74,6.74,0,0,1,267.21,233.81Z" style="fill:#455a64"></path></g></svg>