<svg xmlns="http://www.w3.org/2000/svg" viewBox="0 0 500 500"><g id="freepik--Table--inject-393"><path d="M468.21,472.58c0,.14-97.7.26-218.2.26s-218.22-.12-218.22-.26,97.68-.26,218.22-.26S468.21,472.44,468.21,472.58Z" style="fill:#263238"></path></g><g id="freepik--Character--inject-393"><path d="M218.43,127.41a26.84,26.84,0,0,1,12.85-16.27c6.85-3.74,15.12-4.28,22.77-2.75s14.78,5,21.54,8.91c3.79,2.19,7.57,4.6,10.29,8,5,6.25,5.65,14.78,6.13,22.76.39,6.45.72,13.21-2,19.06A19.84,19.84,0,0,1,276.65,178" style="fill:#263238"></path><path d="M288.47,159.75a42.69,42.69,0,0,0,10.27-31.7c-.36-3.82-1.41-7.87-4.35-10.34-1.5-1.26-3.38-2-4.91-3.23-2.79-2.23-4.16-5.84-6.81-8.23a10.84,10.84,0,0,0-17.68,5c-1.39,4.84.69,9.94,2.73,14.55q4.74,10.68,9.47,21.36a28.52,28.52,0,0,0,4.35,7.58c1.95,2.18,4.78,3.79,7.69,3.53" style="fill:#263238"></path><path d="M221.66,122.63a36.75,36.75,0,0,0-3.23,45.76,308.39,308.39,0,0,1,16.42-51.2" style="fill:#263238"></path><path d="M214.87,146.44c.83-12.7,9.28-28.26,21.93-26.9L266.07,127c9.39,2.4,15.65,10.33,16.34,20,0,.49.08-.1.07.26l-2.11,76.68A22.9,22.9,0,0,1,257,246.16h0a22.89,22.89,0,0,1-22.39-22.86c0-6.18,0-13.47,0-13.44S218.35,207.13,215,186C213.39,175.43,214,160.54,214.87,146.44Z" style="fill:#ffbe9d"></path><path d="M244,139.82a22.76,22.76,0,0,1-6.13,1.26,22.27,22.27,0,0,1-6.27,0c0-.16,2.79-.17,6.21-.52S243.93,139.67,244,139.82Z" style="fill:#eb996e"></path><path d="M239.24,139.06a10.27,10.27,0,0,1-3.82.7,9.91,9.91,0,0,1-3.86-.29,26.47,26.47,0,0,1,3.84-.23A25.32,25.32,0,0,1,239.24,139.06Z" style="fill:#eb996e"></path><path d="M248.05,181c-.14,0-.33-.85-1.18-1.39s-1.7-.42-1.74-.55.18-.21.57-.26a2.2,2.2,0,0,1,1.46.37,2.25,2.25,0,0,1,.91,1.2C248.17,180.72,248.11,181,248.05,181Z" style="fill:#eb996e"></path><path d="M221.92,162.81a2.72,2.72,0,0,0,2.61,2.75,2.61,2.61,0,0,0,2.81-2.44,2.72,2.72,0,0,0-2.61-2.75A2.6,2.6,0,0,0,221.92,162.81Z" style="fill:#263238"></path><path d="M218.6,155.42c.33.36,2.39-1.16,5.32-1.15s5.05,1.48,5.37,1.13c.16-.16-.18-.8-1.12-1.48a7.44,7.44,0,0,0-4.3-1.34,7.12,7.12,0,0,0-4.23,1.36C218.74,154.62,218.43,155.26,218.6,155.42Z" style="fill:#263238"></path><path d="M250,162.81a2.71,2.71,0,0,0,2.61,2.75,2.6,2.6,0,0,0,2.8-2.44,2.7,2.7,0,0,0-2.61-2.75A2.6,2.6,0,0,0,250,162.81Z" style="fill:#263238"></path><path d="M247.31,156c.34.36,2.4-1.16,5.32-1.15s5.06,1.48,5.38,1.13c.15-.16-.19-.8-1.12-1.48a7.46,7.46,0,0,0-4.3-1.34,7.16,7.16,0,0,0-4.24,1.36C247.45,155.23,247.15,155.87,247.31,156Z" style="fill:#263238"></path><path d="M236.66,177.67c0-.16-1.8-.48-4.74-.86-.75-.08-1.45-.23-1.58-.74a3.8,3.8,0,0,1,.51-2.21l2.21-5.68c3.09-8.08,5.32-14.72,5-14.84s-3.09,6.33-6.17,14.41q-1.11,3-2.12,5.71a4.25,4.25,0,0,0-.4,2.92,1.88,1.88,0,0,0,1.23,1.1,5.69,5.69,0,0,0,1.26.18C234.81,177.82,236.65,177.84,236.66,177.67Z" style="fill:#263238"></path><path d="M262.64,202.33s-6.88,14.54-28.07,12.51v-5A53.27,53.27,0,0,0,262.64,202.33Z" style="fill:#eb996e"></path><path d="M237.88,184.72a5.28,5.28,0,0,1,4.73-1.95,4.8,4.8,0,0,1,3.31,1.79,3,3,0,0,1,.22,3.48,3.52,3.52,0,0,1-3.83,1,11.09,11.09,0,0,1-3.73-2.24,3.23,3.23,0,0,1-.83-.86,1,1,0,0,1,0-1.09" style="fill:#3B88C6"></path><path d="M245.25,179.71c-.47,0-.48,3.14-3.2,5.39s-6.1,1.89-6.12,2.33c-.05.2.75.62,2.18.66a7.84,7.84,0,0,0,5.1-1.77,6.85,6.85,0,0,0,2.49-4.51C245.82,180.48,245.47,179.7,245.25,179.71Z" style="fill:#263238"></path><path d="M246.61,147.48c.28.79,3.2.42,6.63.84s6.19,1.36,6.65.65c.2-.34-.28-1.09-1.39-1.86A11.69,11.69,0,0,0,248.38,146C247.12,146.48,246.48,147.1,246.61,147.48Z" style="fill:#263238"></path><path d="M219.69,147c.51.67,2.53,0,4.95-.05s4.47.46,4.94-.23c.21-.34-.12-1-1-1.63a6.79,6.79,0,0,0-4-1.1,6.93,6.93,0,0,0-4,1.32C219.75,146,219.47,146.65,219.69,147Z" style="fill:#263238"></path><path d="M220.62,127.1c1.3-3.18,4.79-5.09,8.23-5.27a18.1,18.1,0,0,1,9.76,2.85c12.61,7.28,19.7,21.76,32.15,29.3,3.07,1.85,6.45,3.28,9.05,5.74s4.3,6.38,2.86,9.66a29.89,29.89,0,0,0,4.32-7.31,10,10,0,0,0-.35-8.25c-1.08-1.87-3-3.3-3.5-5.39-.46-1.84.26-3.76.18-5.66a12.32,12.32,0,0,0-1.94-5.4c-4.88-8.63-11.59-16.43-20.23-21.29a35.85,35.85,0,0,0-18.58-4.8,27.45,27.45,0,0,0-17.68,7c-2.78,2.6-5.71,5.29-4.27,8.81" style="fill:#263238"></path><path d="M282.5,169.44s.24-.29.66-.86a9.33,9.33,0,0,0,1.37-2.76,15.74,15.74,0,0,0-1.16-11.08c-1-2.22-2.31-4.5-3.69-7a80.42,80.42,0,0,1-3.88-8.26,58.7,58.7,0,0,0-4.43-9,35.27,35.27,0,0,0-7-8.06,37.22,37.22,0,0,0-18.58-8.56c-6.31-.94-12.23,0-16.49,2.23a17.93,17.93,0,0,0-7.93,7.91,16.06,16.06,0,0,0-1.1,2.9c-.17.69-.24,1.06-.26,1.06a1.18,1.18,0,0,1,0-.28c0-.18.06-.45.14-.8a15,15,0,0,1,1-3,18,18,0,0,1,8-8.15c4.32-2.33,10.33-3.31,16.72-2.38a37.48,37.48,0,0,1,18.85,8.64,35.57,35.57,0,0,1,7.11,8.18,59.1,59.1,0,0,1,4.44,9.06,82.37,82.37,0,0,0,3.82,8.24c1.36,2.5,2.7,4.81,3.64,7.06,2,4.48,1.94,8.72,1,11.29a8.65,8.65,0,0,1-1.48,2.76A5.28,5.28,0,0,1,282.5,169.44Z" style="fill:#455a64"></path><path d="M292.27,158.34a2.3,2.3,0,0,1,0-.6c0-.45,0-1,.06-1.73.06-1.49.13-3.66.05-6.33a54,54,0,0,0-1-9.31A24.83,24.83,0,0,0,286.82,130a57.4,57.4,0,0,0-8.13-8.09c-2.67-2.32-5.17-4.3-7.34-5.86s-4-2.72-5.3-3.48l-1.49-.86a2.85,2.85,0,0,1-.51-.33,3.87,3.87,0,0,1,.56.23c.36.17.88.43,1.54.79a56.64,56.64,0,0,1,5.41,3.35c2.21,1.53,4.74,3.49,7.45,5.8a55.62,55.62,0,0,1,8.22,8.13,25,25,0,0,1,4.59,10.59,51.31,51.31,0,0,1,.92,9.4c0,2.69-.08,4.86-.2,6.36-.06.75-.12,1.33-.17,1.72A2.41,2.41,0,0,1,292.27,158.34Z" style="fill:#455a64"></path><path d="M283,107.2a9,9,0,0,1,.59,2.4,28,28,0,0,1-.71,11.85,8.72,8.72,0,0,1-.87,2.32,61,61,0,0,0,1.34-8.24A60,60,0,0,0,283,107.2Z" style="fill:#455a64"></path><path d="M297.87,122.88a4.57,4.57,0,0,1-.72,1.77,11.41,11.41,0,0,1-7.26,5.33,4.77,4.77,0,0,1-1.9.16,14.9,14.9,0,0,1,1.81-.52,13.24,13.24,0,0,0,4-2,13.49,13.49,0,0,0,3.08-3.19A15.35,15.35,0,0,1,297.87,122.88Z" style="fill:#455a64"></path><path d="M298.91,137.11a10.42,10.42,0,0,1-8.38-.24c.05-.17,1.89.4,4.18.48S298.88,136.94,298.91,137.11Z" style="fill:#455a64"></path><path d="M289.71,174.1c-.5-.25-.25-1.65-.19-3.92a10.79,10.79,0,0,0-.44-3.71,6.1,6.1,0,0,0-.39-.86,2.4,2.4,0,0,0-.25-.37c-.07-.12-.23-.33-.35-.5a16.54,16.54,0,0,0-1.74-2,5.32,5.32,0,0,0-1.83-1.28c-.23-.08-.28,0-.18,0l-.74.15-.8.18a14.3,14.3,0,0,0-3,1.14,15.74,15.74,0,0,0-1.51.87l-.39.24-.65.39c-.45.24-.89.45-1.35.64a13.57,13.57,0,0,1-5.95,1,9.65,9.65,0,0,1-3.57-.89l-.46-.23-.36-.22c-.24-.15-.5-.29-.72-.46a11.16,11.16,0,0,1-1.31-1.05,17.29,17.29,0,0,1-3.63-4.94c-.86-1.68-1.5-3.32-2.12-4.81a55.74,55.74,0,0,0-9.09-14.94,59.8,59.8,0,0,0-10.62-9.83,33.8,33.8,0,0,0-8.34-4.79c-2.11-.79-3.48-1-3.56-1.56s1.25-1.37,4-1.45,6.68.94,10.75,3.07A49.43,49.43,0,0,1,254,133.69a53,53,0,0,1,11,16.8c.65,1.6,1.21,3,1.82,4.28a10.57,10.57,0,0,0,1.92,2.86c.17.17.34.31.51.45s.18.11.26.18l.13.09.06,0a2.3,2.3,0,0,0,.86.26,6.81,6.81,0,0,0,2.79-.3l.63-.24.27-.13.54-.29a23.45,23.45,0,0,1,2.21-1,20,20,0,0,1,4.61-1.23l1.09-.12.53,0,.6,0a6.2,6.2,0,0,1,3.35.8,10.53,10.53,0,0,1,3.39,3.14,18.85,18.85,0,0,1,1.83,3.1c.12.27.22.47.34.79a6.7,6.7,0,0,1,.32.92,8.89,8.89,0,0,1,.32,1.75,11,11,0,0,1-.9,5.15C291.38,173.38,290.15,174.34,289.71,174.1Z" style="fill:#263238"></path><path d="M279.51,162.34c.22-.61,11.26-4.59,11.41,7.14.14,11.41-11.36,9.16-11.39,8.84S279.51,162.34,279.51,162.34Z" style="fill:#ffbe9d"></path><path d="M283,174c.05,0,.2.14.54.29a2,2,0,0,0,1.48,0c1.2-.46,2.2-2.38,2.24-4.43a6.61,6.61,0,0,0-.59-2.84,2.28,2.28,0,0,0-1.51-1.51A1,1,0,0,0,284,166c-.15.32-.08.55-.14.57s-.25-.19-.16-.66a1.31,1.31,0,0,1,.44-.72,1.56,1.56,0,0,1,1.1-.3,2.77,2.77,0,0,1,2.09,1.75,6.76,6.76,0,0,1,.72,3.17c-.05,2.3-1.21,4.46-2.85,5a2.14,2.14,0,0,1-1.82-.28C283,174.24,283,174,283,174Z" style="fill:#eb996e"></path><path d="M288.3,162.17s-.13-.3-.48-.77a4.44,4.44,0,0,0-2.05-1.51,8.26,8.26,0,0,0-4-.36,19.56,19.56,0,0,0-5.12,1.84c-1.84.82-4,1.83-6.49,1.65a10.43,10.43,0,0,1-6.74-3.61,21,21,0,0,1-4-7.47c-.95-2.79-1.81-5.7-3-8.58a44,44,0,0,0-9-14.82,25.3,25.3,0,0,0-12.07-7.12,21.89,21.89,0,0,0-5.4-.69,19.56,19.56,0,0,0-4.09.49,32.81,32.81,0,0,0-3.35,1.1l.21-.12.61-.29a14.08,14.08,0,0,1,2.48-.89,19.33,19.33,0,0,1,4.14-.58,21.88,21.88,0,0,1,5.49.62,25.46,25.46,0,0,1,12.33,7.15,44.18,44.18,0,0,1,9.12,15c1.16,2.9,2,5.84,2.95,8.6a20.82,20.82,0,0,0,3.91,7.32,10,10,0,0,0,6.41,3.5c2.36.19,4.47-.76,6.31-1.55a19,19,0,0,1,5.23-1.79,8.29,8.29,0,0,1,4.15.45,4.34,4.34,0,0,1,2,1.64,2.59,2.59,0,0,1,.32.61C288.28,162.09,288.31,162.16,288.3,162.17Z" style="fill:#455a64"></path><path d="M284,156.48a4.74,4.74,0,0,1-.69-.38c-.43-.28-1.1-.65-1.91-1.22a39.42,39.42,0,0,1-6.15-5.6,108.07,108.07,0,0,1-7.53-9.78,89.47,89.47,0,0,0-9.41-11.72,35.67,35.67,0,0,0-6.07-4.79,29,29,0,0,0-6.56-3,32.49,32.49,0,0,0-12.08-1.48,30.71,30.71,0,0,0-8.09,1.58c-.94.29-1.63.6-2.11.78a5.63,5.63,0,0,1-.75.27,4.77,4.77,0,0,1,.71-.36,19.07,19.07,0,0,1,2.08-.88,29.67,29.67,0,0,1,8.13-1.76,32.17,32.17,0,0,1,12.25,1.39,29.93,29.93,0,0,1,6.68,3,36.46,36.46,0,0,1,6.18,4.86,88,88,0,0,1,9.43,11.81,116.15,116.15,0,0,0,7.41,9.81,42.92,42.92,0,0,0,6,5.69c.78.59,1.43,1,1.85,1.29A4.8,4.8,0,0,1,284,156.48Z" style="fill:#455a64"></path><path d="M284.31,176a2.31,2.31,0,0,1,2.58,1.66,2.24,2.24,0,1,1-3.12-1.49" style="fill:#fff"></path><path d="M283.77,176.15a3,3,0,0,0-1,1.53,2,2,0,0,0,.44,1.79,2.16,2.16,0,0,0,2.13.61,2.13,2.13,0,0,0,1.38-1.73,1.94,1.94,0,0,0-.67-1.72,3.05,3.05,0,0,0-1.72-.65s.17-.12.53-.13a2.39,2.39,0,0,1,2.34,2.56,2.57,2.57,0,0,1-1.7,2.16,2.54,2.54,0,0,1-2.64-.78,2.28,2.28,0,0,1-.45-2.21,2.32,2.32,0,0,1,.88-1.23C283.56,176.15,283.76,176.12,283.77,176.15Z" style="fill:#263238"></path><path d="M240.83,221.71c-2.81.69-6.24,1.59-6.24,1.59l-14.35,34.81-.62,26.68,29,25.33,36.92-34.67L289.11,237,285.21,217Z" style="fill:#ffbe9d"></path><path d="M210.25,365.67l85-6.18s36.57,15.68,36.57,88.76v24.33H174.47s-5.89-81.28,33.35-106.91" style="fill:#263238"></path><path d="M279.22,263.12,298,287.63,267.27,364l-54.44,1.21,4.81-97.45,8.31-6.45c-.79,3.59-.86,10.71,1.49,14.83s6.13,7.2,9.81,10.19,7.42,6.13,9.67,10.31c-.91-5.31,2.7-10.46,7.12-13.54s9.67-4.7,14.38-7.31,10.05-7.32,10.8-12.65" style="fill:#fafafa"></path><path d="M206.28,232.08l23.32-6.57,5.19-9.88.92,6.48s-2.74,8.8-2.49,8c1.53-5.1-8.71,36.14-8.71,36.14s-7,32.09-7,38-1.57,48.14-1.57,48.14l-10.45,99.2s-31.29-23.32-31.29-29.59c0-1.88,2.55-18.85,4.26-24.13,5.45-16.81,8-24.66,17-39.85L204,343.42,191.19,313.2l6.71-61.46Z" style="fill:#3B88C6"></path><path d="M193.91,315.23c-.78-7.05,4-63.49,4-63.49l8.38-19.66s-9.95,2-11.51,3.61-7.46,6.76-9.79,10.57c-20.76,34-19.5,77.36-19.5,77.36.61,2.25,6,34.78,5.41,31.05l15,14.58,13.59-13.4-1.17-16.05S194.7,322.27,193.91,315.23Z" style="fill:#3B88C6"></path><path d="M229.6,225.51a2.69,2.69,0,0,1-.4.21l-1.2.57-4.62,2.15c-4.06,1.84-9.87,4.49-17,7.76l.08-.29,7.32,11.23.17.25-.29.09L201.43,251l.18-.23c0,7.68,0,16.07.22,24.8.53,21.08.89,40.38,5.51,53.58,1.81,6.68,3.41,12.05,4.52,15.76.55,1.83,1,3.26,1.29,4.26.14.47.24.84.33,1.11a2,2,0,0,1,.09.39,1.73,1.73,0,0,1-.14-.37l-.38-1.1c-.33-1-.79-2.41-1.39-4.23-1.17-3.7-2.82-9.05-4.68-15.72-.9-3.34-1.93-7-2.8-11a103.88,103.88,0,0,1-1.6-12.92c-.72-9.14-1.06-19.2-1.27-29.77-.18-8.73-.22-17.13-.19-24.82v-.18l.18-.05L213.51,247l-.13.35-7.26-11.27-.13-.19.21-.09,17.09-7.6,4.67-2.05,1.22-.52Z" style="fill:#263238"></path><path d="M249.65,247s-.32.08-.84.29a4.07,4.07,0,0,0-1.8,1.48,3.44,3.44,0,0,0-.4,3.26,3.58,3.58,0,0,0,6.58.39,3.42,3.42,0,0,0,0-3.28,4.05,4.05,0,0,0-1.61-1.69c-.49-.27-.81-.34-.8-.39a1.84,1.84,0,0,1,.89.21,4,4,0,0,1,1.85,1.69,4.15,4.15,0,0,1,.53,1.69,3.64,3.64,0,0,1-.42,2,4,4,0,0,1-7.45-.44,3.71,3.71,0,0,1-.18-2,4.12,4.12,0,0,1,.73-1.61,4,4,0,0,1,2-1.46A1.61,1.61,0,0,1,249.65,247Z" style="fill:#fff"></path><path d="M234.79,224.63c.06,0,.09,1,.52,2.7a21.75,21.75,0,0,0,3.23,6.71,57.25,57.25,0,0,0,7.4,8.31,10.86,10.86,0,0,0,2.45,2,3.68,3.68,0,0,0,3.07.18,22.6,22.6,0,0,0,3.09-1.52l3.15-1.73a81.49,81.49,0,0,0,11.43-7.43,38.7,38.7,0,0,0,7.64-8,29,29,0,0,0,3.48-6.62c.29-.84.5-1.5.62-2a5.34,5.34,0,0,1,.22-.68,3.15,3.15,0,0,1-.12.71,16.54,16.54,0,0,1-.53,2,27.07,27.07,0,0,1-3.36,6.77,38.39,38.39,0,0,1-7.64,8.19A78.71,78.71,0,0,1,258,241.71l-3.16,1.73a21.62,21.62,0,0,1-3.17,1.55,4.85,4.85,0,0,1-1.77.27,4.23,4.23,0,0,1-1.69-.48,11,11,0,0,1-2.55-2.09,55.69,55.69,0,0,1-7.37-8.44,20.47,20.47,0,0,1-3.12-6.87,14.35,14.35,0,0,1-.31-2A3.45,3.45,0,0,1,234.79,224.63Z" style="fill:#fff"></path><path d="M276.66,209.61c.77.51,11,6.94,11,6.94l3.07,4.31,37,6.71-4.8,52.54-22.49,72.67s24,31.26,28.74,54.83c2.91,14.42,2.67,32.26,2.67,32.26l-81,13.29s-5.38-18.74-2.51-44.46c1.81-16.17,11.76-64.92,11.76-64.92l13.55-57s11-47.79,10.73-48.56.51-15.07.51-15.07l-5.62-10.56Z" style="fill:#3B88C6"></path><path d="M299.9,223.62a1.93,1.93,0,0,1,.31.25l.88.79,3.35,3.07,12.3,11.39.18.17-.22.12-13.84,7.76,0-.4,13.87,5.48.23.09-.09.2c-1.73,4-4,7.7-6.2,11.7s-4.6,8.06-7,12.22c-11.25,19.32-21.64,36.69-29.18,49.25-3.77,6.25-6.83,11.32-9,14.85-1.06,1.72-1.88,3.07-2.46,4l-.66,1c-.15.24-.23.35-.23.35a1.55,1.55,0,0,1,.19-.37l.61-1.07,2.38-4.07,8.83-14.93c7.45-12.61,17.79-30,29-49.32,2.4-4.17,4.74-8.26,7-12.21s4.5-7.81,6.17-11.59l.14.3-13.85-5.52-.43-.17.41-.23,13.88-7.68,0,.29L304.3,227.87,301,224.74l-.84-.83A2.27,2.27,0,0,1,299.9,223.62Z" style="fill:#263238"></path><g style="opacity:0.30000000000000004"><path d="M292.37,295.17C281.22,313,271.6,331,260.45,348.88c13.36-5.66,22.06-16.26,26.78-30a49.14,49.14,0,0,0,16.31,18.95Q297.95,316.51,292.37,295.17Z"></path></g><path d="M327.72,227.57s9,3.21,12.37,9.18c5.44,9.53,10,41.43,9.44,49.87-1.6,26.68-14.64,54.74-15.39,54.38,0,0-6.12,5-12.42,5a32.35,32.35,0,0,1-5.58-.58,18.8,18.8,0,0,1-13.37-10c-3.62-7.1-8.59-17.57-9.73-23.46-1.83-9.5-3.93-60.17-3.93-60.17l22.83-10.5L319.82,267s-1.31-10.5,0-16.54S327.72,227.57,327.72,227.57Z" style="fill:#3B88C6"></path><path d="M329.86,312.77a3.51,3.51,0,0,1,0-.71c0-.46,0-1.13,0-2a58.87,58.87,0,0,0-.69-7.35,89.1,89.1,0,0,0-2.41-10.7c-.57-2-1.21-4.05-1.91-6.19s-1.47-4.35-2.12-6.65-1.24-4.56-1.76-6.76l-.73-3.24a12.4,12.4,0,0,1-.43-3.2,7.44,7.44,0,0,1,.91-3c.45-.88.95-1.69,1.41-2.49l2.56-4.44c1.63-2.68,3.11-4.75,4.14-6.16.52-.71.93-1.25,1.22-1.61s.44-.55.46-.53a4.7,4.7,0,0,1-.38.59L328.91,250c-1,1.45-2.4,3.54-4,6.24l-2.51,4.46c-.84,1.6-2.1,3.27-2.21,5.26a11.68,11.68,0,0,0,.44,3.08l.74,3.22c.52,2.19,1.1,4.45,1.76,6.73s1.41,4.49,2.11,6.64,1.33,4.23,1.88,6.22a82.57,82.57,0,0,1,2.31,10.77,49.92,49.92,0,0,1,.53,7.41c0,.88,0,1.56-.06,2A3.2,3.2,0,0,1,329.86,312.77Z" style="fill:#263238"></path><path d="M327.72,246.57c.14.07-1.32,3.18-3,7.08s-2.56,7.2-2.71,7.16a8.09,8.09,0,0,1,.45-2.21,44,44,0,0,1,1.78-5.15c.81-2,1.65-3.7,2.29-4.93A9.05,9.05,0,0,1,327.72,246.57Z" style="fill:#263238"></path><path d="M322.56,331.92a30.33,30.33,0,0,0,.25-8.52,30,30,0,0,0-2.67-8.09,7.84,7.84,0,0,1,1.36,2.15,19.78,19.78,0,0,1,1.75,12A8.21,8.21,0,0,1,322.56,331.92Z" style="fill:#263238"></path><path d="M271.34,166.18c-.2.76-12.58,45.12-12.58,45.12v1.64l17.6,9.71,1.83-1.94,11.38-44.38-16.48-10.52Z" style="fill:#263238"></path><path d="M191.36,262.73a3.17,3.17,0,0,1-.11.69l-.43,1.93c-.4,1.67-.9,4.11-1.49,7.12s-1.15,6.63-1.54,10.67a97.06,97.06,0,0,0-.55,13.17c0,2.34.26,4.61.45,6.81.16,1.09.31,2.16.46,3.21s.41,2.05.59,3.05c.11.49.21,1,.31,1.47s.27.94.4,1.4c.27.92.5,1.82.78,2.68.66,1.67,1.14,3.29,1.85,4.64l.94,2c.31.61.67,1.16,1,1.69a25.16,25.16,0,0,0,1.67,2.63l1.16,1.6a3,3,0,0,1,.37.59,4.24,4.24,0,0,1-.46-.52L195.5,326a22.25,22.25,0,0,1-1.76-2.6c-.31-.53-.69-1.07-1-1.69l-1-2a45.28,45.28,0,0,1-1.93-4.66c-.29-.86-.54-1.77-.82-2.7-.13-.46-.28-.93-.4-1.41s-.22-1-.32-1.48c-.2-1-.49-2-.62-3.07s-.32-2.14-.48-3.23c-.2-2.21-.44-4.5-.46-6.86a94.47,94.47,0,0,1,.59-13.23c.42-4.06,1.08-7.67,1.66-10.69s1.19-5.44,1.65-7.1c.22-.79.39-1.42.53-1.91A4.26,4.26,0,0,1,191.36,262.73Z" style="fill:#263238"></path><path d="M321.72,346a6.64,6.64,0,0,1-1.65.16,19.75,19.75,0,0,1-4.72-.62,19.08,19.08,0,0,1-6.78-3.23,20.1,20.1,0,0,1-6.19-7.75c-1.63-3.31-3.4-6.94-5.24-10.87-.91-2-1.87-4-2.73-6.15a35.64,35.64,0,0,1-1.87-6.91c-.2-1.21-.36-2.44-.45-3.69s-.15-2.51-.22-3.79c-.15-2.54-.31-5.14-.46-7.79-.32-5.29-.64-10.77-1-16.39-.56-9.53-1.09-18.68-1.58-27.13v-.17l.15-.07,22.86-10.46.21-.09.06.22c2.57,8.56,4.66,15.54,6.11,20.4.71,2.4,1.26,4.28,1.64,5.59.18.62.32,1.1.42,1.46s.12.5.12.5-.07-.16-.18-.49l-.47-1.44c-.4-1.3-1-3.16-1.74-5.55-1.5-4.85-3.64-11.81-6.28-20.36l.28.12L289.21,252l.14-.24c.5,8.45,1,17.6,1.61,27.14.33,5.61.65,11.09,1,16.39q.24,4,.46,7.79c.07,1.27.14,2.53.21,3.77s.24,2.46.44,3.65a35.49,35.49,0,0,0,1.81,6.83c.85,2.13,1.8,4.16,2.7,6.13,1.82,3.93,3.58,7.57,5.18,10.89a19.89,19.89,0,0,0,6,7.68,19.23,19.23,0,0,0,6.65,3.27,21.56,21.56,0,0,0,4.67.71c.54,0,.95,0,1.23,0A4.06,4.06,0,0,1,321.72,346Z" style="fill:#263238"></path><g style="opacity:0.30000000000000004"><path d="M320,266.42c3.24,7.28,6,16.24,9.23,23.52,2.66,6,5.37,12.51,3.84,18.87-.22.92-.88,2-1.79,1.77-.63-.18-.89-.92-1.05-1.56-3.47-13.92-6.75-28.68-10.23-42.6"></path></g><g style="opacity:0.30000000000000004"><path d="M190.28,267.09c-3.24,7.42-7.65,14.12-8.64,22.15s.6,16.78,6.1,22.73C186.05,296.84,187.42,282,190.28,267.09Z"></path></g><g style="opacity:0.30000000000000004"><path d="M186.28,373.75a31.55,31.55,0,0,0,11.19,4.64c4,.65,8.4-.07,11.51-2.69,4.4-3.69,5.26-10,5.82-15.72L190.93,370.2c-1.64.7-3.49,1.64-3.89,3.38"></path></g><path d="M302.26,391a8.62,8.62,0,0,1-1.31.74c-.86.46-2.12,1.08-3.69,1.83-3.14,1.49-7.53,3.42-12.49,5.31s-9.52,3.37-12.86,4.34c-1.67.49-3,.86-4,1.09a9,9,0,0,1-1.48.32,7.44,7.44,0,0,1,1.42-.51l3.91-1.25c3.3-1.06,7.84-2.6,12.79-4.48s9.35-3.76,12.52-5.16l3.75-1.67A7.67,7.67,0,0,1,302.26,391Z" style="fill:#263238"></path><path d="M301.14,390.75a4.58,4.58,0,0,1,.76.33l2.13,1.06,7.74,3.94.31.16-.3.19a117.52,117.52,0,0,1-19.58,9.72A115.3,115.3,0,0,1,267,412.71l-.17,0,0-.17c-.24-2.37-.43-4.26-.56-5.63-.05-.62-.1-1.11-.13-1.5a2.05,2.05,0,0,1,0-.52,2.61,2.61,0,0,1,.1.51c.06.39.13.88.21,1.49.18,1.36.42,3.25.71,5.61l-.18-.14a123.48,123.48,0,0,0,44.64-16.3v.35l-7.65-4.11-2.08-1.14A4.42,4.42,0,0,1,301.14,390.75Z" style="fill:#263238"></path><g style="opacity:0.30000000000000004"><path d="M268.72,412.51c8,2.34,16.62,3.24,24.6.9s15.45-8.56,17.61-16.76A131.61,131.61,0,0,1,268.72,412.51Z"></path></g><g style="opacity:0.30000000000000004"><path d="M268.53,412.55l.19,0-.44-.12Z"></path></g><path d="M250.83,273.19c.08.07-.9,1.07-2.09,3a22.56,22.56,0,0,0-1.77,3.49,24.41,24.41,0,0,0-1.28,4.6,24.9,24.9,0,0,0-.29,4.78,22.91,22.91,0,0,0,.53,3.87c.51,2.18,1.11,3.45,1,3.49a3.91,3.91,0,0,1-.46-.87,7.77,7.77,0,0,1-.44-1.07,12.74,12.74,0,0,1-.46-1.46,19.9,19.9,0,0,1-.66-3.94,23.56,23.56,0,0,1,.25-4.88,22.76,22.76,0,0,1,1.36-4.7,20.14,20.14,0,0,1,1.9-3.51,13.15,13.15,0,0,1,.91-1.23,8.08,8.08,0,0,1,.77-.87C250.55,273.4,250.8,273.16,250.83,273.19Z" style="fill:#eb996e"></path><path d="M276.52,268.17a5.46,5.46,0,0,1-.27-.66,2.32,2.32,0,0,0-1.3-1.41,1.06,1.06,0,0,0-1.21.36,4,4,0,0,0-.58,1.6,14.47,14.47,0,0,0-.23,4.25l.11,1.22-.46-1.14a5.82,5.82,0,0,0-1.41-2.34,1.74,1.74,0,0,0-2.5,0,5.94,5.94,0,0,0-.73,3.11,10.27,10.27,0,0,0,.55,3.47l.33,1-.73-.72-2.29-2.27a15.21,15.21,0,0,0-1.18-1.12.77.77,0,0,0-1.16.08,3.43,3.43,0,0,0-.53,1.5c-.11.56-.2,1.13-.26,1.71a18.9,18.9,0,0,0,0,3.53v0l.09,1.31-.58-1.17a8.55,8.55,0,0,0-1.77-2.64,2.68,2.68,0,0,0-2.71-.66,2.53,2.53,0,0,0-1.46,2.26,9.12,9.12,0,0,0,.33,2.89l-.47.14a3.78,3.78,0,0,0-2.92-2.41,3.62,3.62,0,0,0-3.3,1.24,3.48,3.48,0,0,0-.81,3.14,3.78,3.78,0,0,0,1.68,2.42l-.22.27a2.06,2.06,0,0,0-1.78-.57,2.79,2.79,0,0,0-1.57.75,3,3,0,0,0-.77,2.63,5.47,5.47,0,0,0,.94,2.26s-.05,0-.12-.11a4.24,4.24,0,0,1-1-2.12,3.23,3.23,0,0,1,.77-2.86,3,3,0,0,1,1.72-.85,2.37,2.37,0,0,1,2.08.63l.86.91-1.08-.64a4.16,4.16,0,0,1-1.89-2.63,3.93,3.93,0,0,1,.87-3.51,4.11,4.11,0,0,1,3.71-1.42,4.24,4.24,0,0,1,3.3,2.71l-.46.14a9.32,9.32,0,0,1-.36-3.06,3.07,3.07,0,0,1,1.77-2.69,3.18,3.18,0,0,1,3.24.75,8.61,8.61,0,0,1,1.89,2.8l-.49.13v0a19,19,0,0,1,.05-3.62c.06-.6.15-1.18.26-1.76a4,4,0,0,1,.64-1.72,1.24,1.24,0,0,1,.91-.49,1.46,1.46,0,0,1,.94.32,14.12,14.12,0,0,1,1.24,1.17l2.28,2.29-.4.24a10.68,10.68,0,0,1-.55-3.63,11.16,11.16,0,0,1,.19-1.75,3.6,3.6,0,0,1,.66-1.62,1.81,1.81,0,0,1,1.59-.69,2.63,2.63,0,0,1,1.51.63,6,6,0,0,1,1.48,2.51l-.34.08a14.19,14.19,0,0,1,.32-4.34,4.08,4.08,0,0,1,.66-1.69,1.31,1.31,0,0,1,1.46-.4,2.32,2.32,0,0,1,1.33,1.56c.08.22.12.4.15.51S276.53,268.16,276.52,268.17Z" style="fill:#fff"></path><path d="M247.81,296.22s0-.22.1-.63a4.41,4.41,0,0,0-.1-1.79,2.86,2.86,0,0,0-1.83-2,1.91,1.91,0,0,0-1.65.21,1.74,1.74,0,0,0-.85,1.59h-.34a37.52,37.52,0,0,0,.39-6.25,1.63,1.63,0,0,0-.68-1.36,2,2,0,0,0-1.61-.09,2.8,2.8,0,0,0-1.33,1.14,9.78,9.78,0,0,0-.84,1.75l-.45-.17a12,12,0,0,0,.69-3.46,12.34,12.34,0,0,0-.05-1.82,5.15,5.15,0,0,0-.41-1.76,2.32,2.32,0,0,0-3.08-.87,7.25,7.25,0,0,0-2.76,2.69l-.45-.27.5-1a8.57,8.57,0,0,0,1-3.53,3.6,3.6,0,0,0-1.31-3,2.72,2.72,0,0,0-3.05.27,8.74,8.74,0,0,0-2.11,2.56l-.42-.23a38.15,38.15,0,0,0,2.23-6.52,8.1,8.1,0,0,0,.29-1.52.88.88,0,0,0-.66-1,1.5,1.5,0,0,0-1.24.27,5.46,5.46,0,0,0-.95,1l-.85,1.05.53-1.24a17.18,17.18,0,0,0,1.3-4.84,16.67,16.67,0,0,0,.11-2.06,3.29,3.29,0,0,0-.24-1.64.89.89,0,0,0-1.14-.22,1.76,1.76,0,0,0-.71.66c-.28.47-.38.75-.41.74s0-.08.06-.21a4.7,4.7,0,0,1,.26-.58,1.78,1.78,0,0,1,.73-.75,1.08,1.08,0,0,1,1.38.24,3.31,3.31,0,0,1,.33,1.76,15.23,15.23,0,0,1-.08,2.09,17.15,17.15,0,0,1-1.24,5l-.32-.19a5.34,5.34,0,0,1,1-1.06,1.86,1.86,0,0,1,1.56-.35,1.29,1.29,0,0,1,.74.5,1.5,1.5,0,0,1,.24.86,8.43,8.43,0,0,1-.28,1.62,37.33,37.33,0,0,1-2.22,6.62l-.43-.23a9.17,9.17,0,0,1,2.23-2.71,3.82,3.82,0,0,1,1.74-.7,2.66,2.66,0,0,1,1.89.42,4.12,4.12,0,0,1,1.54,3.47,9,9,0,0,1-1,3.74l-.5,1-.45-.27a7.76,7.76,0,0,1,3-2.86,3.51,3.51,0,0,1,2.1-.18,2.38,2.38,0,0,1,1.63,1.31,5.66,5.66,0,0,1,.46,1.93,12.09,12.09,0,0,1,0,1.9,12.87,12.87,0,0,1-.73,3.59l-.44-.17a9.71,9.71,0,0,1,.9-1.83,3.26,3.26,0,0,1,1.56-1.3,2.35,2.35,0,0,1,2,.15,2,2,0,0,1,.86,1.69,36.62,36.62,0,0,1-.46,6.33l-.22,1.41-.12-1.42a2.09,2.09,0,0,1,1-1.88,2.24,2.24,0,0,1,1.89-.2,3,3,0,0,1,1.92,2.19,4.1,4.1,0,0,1-.11,2.31Q247.83,296.22,247.81,296.22Z" style="fill:#fff"></path><path d="M294.08,249.5c-.32-1-.88-13.42-.88-13.42a8.31,8.31,0,0,1-4.09-5c-1.22-3.77-1.22-11.45-1.22-11.45s-2.23-3.07-2.37-4-6.85-.7-6.85-.7-4.75,4.05-6.56,3.63-1.4-2.93-1.4-2.93l5-5.45,5.45-1.82h7.92s1.21-2.51,0-3.49-6.74-6.29-6.74-6.29H273.5s-4.75,3.36-8.1.56v-1.95l5.31-2.94s-2.38-2.23.56-4.75a39.77,39.77,0,0,1,6-4.19h4.61s-5.58-3.77-5.86-4.89-2.66-4.19-.56-5.86l14.81,9.08,12,11.59s4.05,2.24,4.05,4.89,5.61,41.24,5.61,41.24Z" style="fill:#ffbe9d"></path><path d="M293.49,198.33c-.08.07-.92-1.11-2.69-2.57a17.57,17.57,0,0,0-16.8-3.1c-2.18.73-3.39,1.52-3.44,1.44a3.53,3.53,0,0,1,.82-.59,15,15,0,0,1,2.49-1.2A17,17,0,0,1,291,195.48a14.11,14.11,0,0,1,1.9,2A3.07,3.07,0,0,1,293.49,198.33Z" style="fill:#eb996e"></path><path d="M296.37,193.89c-.08.05-.79-.94-2.19-2.31a22.59,22.59,0,0,0-13.56-6.27c-1.95-.18-3.17-.09-3.17-.18a2.48,2.48,0,0,1,.85-.15,16.78,16.78,0,0,1,2.35,0,19.52,19.52,0,0,1,3.45.49,22.64,22.64,0,0,1,4,1.39,22.22,22.22,0,0,1,3.68,2.19,18.85,18.85,0,0,1,2.61,2.32,14,14,0,0,1,1.49,1.81C296.24,193.6,296.4,193.86,296.37,193.89Z" style="fill:#eb996e"></path><polygon points="166.34 338.72 130.43 318.91 131.32 314.03 193.99 314.03 263.16 355.42 260.85 360.03 206.7 361.03 166.34 338.72" style="fill:#455a64"></polygon><path d="M165.48,335.17l1.85,7.63s5.57,5.36,6.39,7.42,5.57,6.19,5.57,6.19l1.44,7.21s3.51,6,8.45,7.22,11.34,0,11.34,0,12.16-8.87,14.84-9.9,29.28-3.09,29.48-3.71,1.65-4-1-4-14.63,1.06-14.63,1.06l6.39-6.18a8.4,8.4,0,0,0-3.71-3.51c-2.27-.82-6.6,2.48-6.6,2.48l-9.07,4.74,10.92-8.25s-.41-3.91-4.12-3.71-17.54,8.46-17.54,8.46l-3.28.41s1.44-3.92,1.86-5.36,2.88-3.09,2.88-3.09-.82-5.36-3.91-5.16a10.85,10.85,0,0,0-8.25,5.36c-1.44,2.89-2.89,6.8-2.89,6.8L178.46,342S173.52,330.84,165.48,335.17Z" style="fill:#ffbe9d"></path></g></svg>