<svg xmlns="http://www.w3.org/2000/svg" viewBox="0 0 750 500"><g id="freepik--speech-bubble-1--inject-417"><path d="M244,233.53l9.88-17.42a46.67,46.67,0,1,1,11.18,12.44l0,0Z" style="fill:#fafafa"></path><path d="M244,233.53l21.11-4.82.21-.05-.13-.18,0,0-.2.2a47.56,47.56,0,0,0,9.59,5.78,46.72,46.72,0,0,0,12.78,3.65,41.58,41.58,0,0,0,7.38.37c1.27-.07,2.56-.1,3.86-.21l3.94-.59A47,47,0,0,0,331.66,219a46.67,46.67,0,0,0,7.88-18,47.38,47.38,0,0,0-.56-20.73,45.81,45.81,0,0,0-10-19.17l-1.9-2.1c-.62-.7-1.37-1.28-2-1.93s-1.35-1.3-2.11-1.84l-2.24-1.67a19,19,0,0,0-2.32-1.54L316,150.54l-2.48-1.2a19.7,19.7,0,0,0-2.49-1.11,47.58,47.58,0,0,0-20.9-3.21A45.92,45.92,0,0,0,271,150.68a47.34,47.34,0,0,0-22.12,27.23,50.22,50.22,0,0,0-2,15.16,46.17,46.17,0,0,0,2.28,13.09,47.5,47.5,0,0,0,4.67,10v-.14L244,233.53l10-17.35,0-.07,0-.07a47.35,47.35,0,0,1-4.59-10,46.28,46.28,0,0,1-2.21-13,50.33,50.33,0,0,1,2.06-15,46.84,46.84,0,0,1,22-26.89,45.39,45.39,0,0,1,19-5.58,47.1,47.1,0,0,1,20.64,3.18,24.76,24.76,0,0,1,2.47,1.1l2.45,1.19,2.33,1.42a21.55,21.55,0,0,1,2.29,1.51l2.21,1.66c.75.53,1.38,1.22,2.08,1.82s1.41,1.21,2,1.91l1.88,2.07a45.38,45.38,0,0,1,9.87,18.93,46.85,46.85,0,0,1,.56,20.48,46.09,46.09,0,0,1-7.76,17.81,46.55,46.55,0,0,1-28.79,18.56l-3.89.6c-1.3.11-2.58.15-3.83.22a42,42,0,0,1-7.32-.34,46.71,46.71,0,0,1-12.69-3.57,47.63,47.63,0,0,1-9.55-5.68l-.87-.67.67.87v0l.08-.23Z" style="fill:#263238"></path><path d="M306.17,189.77a4.55,4.55,0,1,0,4.55-4.56A4.55,4.55,0,0,0,306.17,189.77Z" style="fill:#263238"></path><path d="M287.94,189.77a4.56,4.56,0,1,0,4.56-4.56A4.56,4.56,0,0,0,287.94,189.77Z" style="fill:#263238"></path><path d="M269.77,187.49a4.55,4.55,0,1,0,6.22-1.67A4.56,4.56,0,0,0,269.77,187.49Z" style="fill:#263238"></path></g><g id="freepik--character-1--inject-417"><path d="M305,319.59s-10.85-13.23-11-18.75l3.21-32.14s1.73-3.29,4.82,2c2.84,4.82,1.56,12.47,1.56,12.47l2.06,7.45,3.69-5.8L313,263.27s2.28-15.54,4.73-14,3.3,6,2.31,12.7-2.23,15.22-2.23,15.22-.23,2.64,2.11-1.87,4.42-23.24,5.29-25.79,1-9.2,4.83-9,1.89,8.8,1.89,8.8L329.22,277s3.2-11.2,3.81-13.11,1.47-8,2.63-11.34,3-5.12,4.74-5a3.16,3.16,0,0,1,3.08,3l-4.85,23.75s-2.76,10.84-2.53,11.52,4-4.62,4-4.62l2.77-7.74s2.14-10.92,5-11.33S351,264,351,264L346.92,284l-8,22.72-7.72,17.24-1.76,9.21c-.33.47-21.13-3.38-27.68-7.21Z" style="fill:#9f7362"></path><path d="M319.62,308.48a15.07,15.07,0,0,0-.17-4.68,11.41,11.41,0,0,0-2.11-4.54,11.13,11.13,0,0,0-4.91-3.59,11.27,11.27,0,0,0-4.78-.72h-.16l-.07-.14a37.17,37.17,0,0,1-3.12-7.46c-.28-.95-.46-1.73-.57-2.26a4.19,4.19,0,0,1-.12-.83c.07,0,.35,1.12,1,3a42.74,42.74,0,0,0,3.26,7.31l-.24-.12a11.37,11.37,0,0,1,12.2,9.27,10.63,10.63,0,0,1,.11,3.5,5.65,5.65,0,0,1-.19.93C319.68,308.37,319.64,308.48,319.62,308.48Z" style="fill:#65463c"></path><path d="M182.86,122.34A17.47,17.47,0,0,1,199,128.75a11.25,11.25,0,0,1,12.31,16.54,12.53,12.53,0,0,1,.85,19.69l-42.71-31.66A17.44,17.44,0,0,1,182.86,122.34Z" style="fill:#263238"></path><ellipse cx="209.62" cy="193.4" rx="18.28" ry="20.27" style="fill:#455a64"></ellipse><path d="M212.4,167A43.59,43.59,0,0,0,167,129.13l-2.25.11c-24.24,2.63-35.55,24.68-32.25,48.84l7.54,80.77.4,3.92,56.66,8.46L196,250.6s23.19-4.8,22.32-28.17C217.9,211.13,215.14,188,212.4,167Z" style="fill:#9f7362"></path><path d="M196.19,250.56s-14.87,1.63-31.06-7.44c0,0,8,16.45,31.25,13.19Z" style="fill:#65463c"></path><path d="M203.48,186.22a3.34,3.34,0,0,1-3,3.53,3.2,3.2,0,0,1-3.59-2.84,3.35,3.35,0,0,1,3-3.53A3.19,3.19,0,0,1,203.48,186.22Z" style="fill:#263238"></path><path d="M207.94,178.69c-.39.45-3-1.29-6.6-1.11s-6.13,2.12-6.54,1.7c-.21-.19.18-1,1.28-1.89a9.23,9.23,0,0,1,5.21-1.89,8.82,8.82,0,0,1,5.29,1.42C207.72,177.71,208.14,178.48,207.94,178.69Z" style="fill:#263238"></path><path d="M169.42,188.59a3.34,3.34,0,0,1-3,3.53,3.19,3.19,0,0,1-3.58-2.84,3.34,3.34,0,0,1,3-3.53A3.19,3.19,0,0,1,169.42,188.59Z" style="fill:#263238"></path><path d="M172.68,181.11c-.39.45-3-1.29-6.6-1.1s-6.13,2.11-6.55,1.69c-.2-.18.18-1,1.29-1.88a9.16,9.16,0,0,1,5.21-1.9,8.82,8.82,0,0,1,5.29,1.42C172.46,180.14,172.87,180.9,172.68,181.11Z" style="fill:#263238"></path><path d="M187,207.09c0-.2,2.18-.7,5.77-1.34.92-.14,1.78-.37,1.9-1a4.69,4.69,0,0,0-.75-2.69l-3.06-6.85c-4.26-9.75-7.39-17.79-7-18s4.16,7.61,8.42,17.36l2.95,6.89c.4,1,1.05,2.18.65,3.58a2.29,2.29,0,0,1-1.44,1.41,6.2,6.2,0,0,1-1.54.3C189.32,207.16,187.06,207.29,187,207.09Z" style="fill:#263238"></path><path d="M176.59,210.1c.58-.07.79,3.83,4.26,6.43s7.6,2,7.66,2.51c.06.24-.89.8-2.64.94a9.68,9.68,0,0,1-6.38-1.88,8.43,8.43,0,0,1-3.32-5.4C175.94,211.07,176.32,210.09,176.59,210.1Z" style="fill:#263238"></path><path d="M172.91,167c-.31,1-3.91.71-8.1,1.43s-7.54,2-8.14,1.18c-.27-.4.28-1.35,1.6-2.36a14.24,14.24,0,0,1,12.37-2C172.22,165.79,173,166.52,172.91,167Z" style="fill:#263238"></path><path d="M206.11,168.36c-.6.85-3.11.12-6.09.23s-5.46.82-6.08,0c-.28-.4.08-1.24,1.14-2.07a8.82,8.82,0,0,1,9.81-.18C206,167.12,206.36,168,206.11,168.36Z" style="fill:#263238"></path><path d="M209.62,156.4S202.73,142.07,195.5,139c-8.74-3.71-12,5.85-20.21,4s-16.6-5.43-24.61,1.27c-8.76,7.34-4.26,12-4.3,22.36-.2,42.14-7.28,54.41-10.45,34.72-.34-2.16-6.45-3.58-7.8-12.7-1.74-11.83-2.92-26.23-.69-34.8,1.89-7.22,5.7-12.33,12.69-18.11,11.05-9.11,26.8-10.08,37.55-9.53S209.68,138,209.62,156.4Z" style="fill:#263238"></path><path d="M137.39,200.63a6.35,6.35,0,0,0-7.15-5.77c-4.34.63-9.06,3.34-8.33,12.33,1.3,15.95,17.05,11.35,17,10.89S138,207.3,137.39,200.63Z" style="fill:#9f7362"></path><path d="M135,212.37c-.08-.05-.27.21-.72.47a2.78,2.78,0,0,1-2.07.21c-1.74-.48-3.37-3-3.69-5.91a9.22,9.22,0,0,1,.46-4,3.23,3.23,0,0,1,1.91-2.3,1.4,1.4,0,0,1,1.7.63c.25.42.18.75.27.77s.32-.29.13-.94a1.79,1.79,0,0,0-.71-.95,2.1,2.1,0,0,0-1.57-.28,3.92,3.92,0,0,0-2.69,2.71,9.44,9.44,0,0,0-.6,4.52c.36,3.21,2.25,6.08,4.61,6.56a3,3,0,0,0,2.51-.63C135,212.76,135,212.39,135,212.37Z" style="fill:#65463c"></path><path d="M131.37,173.63c2.31,1.41,4.76,2.87,7.47,3s5.71-1.57,6-4.26c.15-1.21-.21-2.59.53-3.55.88-1.15,2.64-.89,4.09-.81a11,11,0,0,0,11-8.45c1.37,1.85,4.35,1.61,6.22.27s3-3.44,4.44-5.25,3.47-3.46,5.77-3.25c1.28.12,2.51.82,3.78.64,2.26-.31,3.23-3,3.46-5.28s.37-4.9,2.22-6.21,4.06-.68,6.15-.48,4.77-.42,5.2-2.48a4.14,4.14,0,0,0-.93-3.09,11.18,11.18,0,0,0-13.38-3.57A15.53,15.53,0,0,0,170,120.76c-5.93-.33-11.45-2-14,3.34-3.8-3.12-9.61,1-14.35,2.3a15.62,15.62,0,0,0-10.35,9.73,11.13,11.13,0,0,0-11.74,16.8c-3,1.92-5.51,5.13-5.39,8.7s3.76,7,7.15,5.84a6.17,6.17,0,0,0,11,5.62" style="fill:#263238"></path><path d="M136.39,185.37a62.94,62.94,0,0,1,.09-8.13,62.35,62.35,0,0,1,.62-8.1,64.16,64.16,0,0,1-.1,8.13A63.52,63.52,0,0,1,136.39,185.37Z" style="fill:#e0e0e0"></path><path d="M126.27,183.06c-.17,0-.14-3.21.25-7.12.17-1.85.34-3.52.48-5a10.28,10.28,0,0,1,.28-2.07c.17,0,.14,3.21-.24,7.12-.18,1.85-.34,3.52-.49,5A10.28,10.28,0,0,1,126.27,183.06Z" style="fill:#e0e0e0"></path><ellipse cx="128.51" cy="200.91" rx="18.28" ry="20.27" style="fill:#455a64"></ellipse><path d="M139.31,200.91a29.66,29.66,0,0,0-.47-3.35,15.87,15.87,0,0,0-1.35-3.71,14,14,0,0,0-3.2-4.09,12.47,12.47,0,0,0-5.55-2.84,11.75,11.75,0,0,0-7.06.7,13.13,13.13,0,0,0-5.92,5.15,15.48,15.48,0,0,0-1.72,3.84,16,16,0,0,0,0,8.6,15.55,15.55,0,0,0,1.72,3.85,13.14,13.14,0,0,0,5.92,5.15,11.84,11.84,0,0,0,7.06.7,12.68,12.68,0,0,0,5.55-2.84,13.89,13.89,0,0,0,3.2-4.1,15.43,15.43,0,0,0,1.35-3.71,29,29,0,0,0,.47-3.35,5.9,5.9,0,0,1,0,.88,13.86,13.86,0,0,1-.29,2.52,15,15,0,0,1-1.3,3.79,13.82,13.82,0,0,1-3.2,4.24,13,13,0,0,1-5.7,3,12.23,12.23,0,0,1-7.35-.68,13.67,13.67,0,0,1-6.17-5.32,16.62,16.62,0,0,1-1.78-4,16.33,16.33,0,0,1,0-8.88,15.87,15.87,0,0,1,1.78-4,13.65,13.65,0,0,1,6.16-5.32,12.19,12.19,0,0,1,7.34-.67,12.89,12.89,0,0,1,5.71,3,13.94,13.94,0,0,1,3.2,4.24,15,15,0,0,1,1.3,3.8,13.77,13.77,0,0,1,.29,2.51A5.9,5.9,0,0,1,139.31,200.91Z" style="fill:#263238"></path><path d="M126.29,170s-2.57-40.8,48.73-43c0,0,17.87,0,25.31,9.32,0,0-12.21-7.08-26-3.2-11.25,3.17-33.43,9-36.42,36.93Z" style="fill:#455a64"></path><g style="opacity:0.30000000000000004"><path d="M114.69,207.85c1.16,5.46,6.64,9.54,12.23,9.49a14.48,14.48,0,0,0,12.86-9.18c2-5.2,1.15-10.25-2.15-14.76a17.06,17.06,0,0,1,.17,14.17c-1.68,4.16-6.6,7.41-11.06,7.81s-9.64-2.68-12-7.53"></path></g><path d="M137.08,183.06a26.85,26.85,0,0,0-7.7-2,26.36,26.36,0,0,0-7.9.92,6.91,6.91,0,0,1,2.21-.88,17.43,17.43,0,0,1,11.31.77A7,7,0,0,1,137.08,183.06Z" style="fill:#263238"></path><path d="M194.15,131.26a10.87,10.87,0,0,1,1.55.82,15.77,15.77,0,0,1,1.73,1.1,26.12,26.12,0,0,1,2.18,1.63l1.21,1c.42.36.82.78,1.24,1.19a35.19,35.19,0,0,1,2.57,2.78,37.94,37.94,0,0,1,7.68,15.44A35.59,35.59,0,0,1,213,159c.07.59.16,1.16.2,1.71s0,1.08.07,1.58a24.41,24.41,0,0,1,0,2.72,15.65,15.65,0,0,1-.17,2.05,10.59,10.59,0,0,1-.28,1.72c-.13,0,.31-2.48.1-6.47,0-.5-.08-1-.11-1.56s-.15-1.11-.23-1.69a36.85,36.85,0,0,0-.71-3.67,39,39,0,0,0-7.58-15.25c-.86-1-1.65-2-2.5-2.79-.42-.41-.8-.83-1.21-1.19l-1.18-1C196.32,132.52,194.09,131.37,194.15,131.26Z" style="fill:#455a64"></path><path d="M118.86,217.78s-.06,0-.16.05a3.3,3.3,0,0,1-.5.07,5.54,5.54,0,0,1-1.9-.17,7.68,7.68,0,0,1-2.71-1.37,9.64,9.64,0,0,1-2.54-3.1,19.73,19.73,0,0,1-1.68-4.56,40.11,40.11,0,0,1-1-5.46,25.27,25.27,0,0,1,1.41-12.58,16.64,16.64,0,0,1,8.61-9.13,43.94,43.94,0,0,1,5.34-1.52,9,9,0,0,0,4.1-2.23,9.28,9.28,0,0,0,2.77-6.11,11.38,11.38,0,0,0-.18-2.53,2.7,2.7,0,0,1,.2.64,7.86,7.86,0,0,1,.19,1.9,9.23,9.23,0,0,1-.57,3,9.07,9.07,0,0,1-2.15,3.39,9.38,9.38,0,0,1-4.24,2.38,46.32,46.32,0,0,0-5.27,1.55,16.26,16.26,0,0,0-8.32,8.89,24.91,24.91,0,0,0-1.41,12.33,42.11,42.11,0,0,0,1,5.41,20.09,20.09,0,0,0,1.59,4.48,8.5,8.5,0,0,0,5,4.45A7.13,7.13,0,0,0,118.86,217.78Z" style="fill:#455a64"></path><path d="M89.06,397.91,41.89,387.73s6.47-35.49,14.52-71.47c6.41-28.69,38.13-36.66,38.13-36.66h0l36.74-16.2,5-19.07c20.2,10,39.79,19.59,51.62,24.4l10.81-12,4.6,14.35,3.87.41s12.57,1,14.18,1.12c12.86.72,27.86,11.72,35,28.83,5,12.05,22.84,54.86,26.49,65l15.09-47.74,35.47,12.95s-15.06,70-20.29,87.83c-2.85,9.72-14.17,28.24-36,22.41l-.3-.1a34.18,34.18,0,0,1-22.18-21.77l-12.1-28.72-4.24,80.41-160.53-.5,11.42-67.56Z" style="fill:#BA68C8"></path><path d="M248,325.57c.14,0-1.19,17.7-3,39.51s-3.36,39.47-3.51,39.46,1.2-17.69,3-39.51S247.81,325.56,248,325.57Z" style="fill:#263238"></path><path d="M130.71,264l47.74,24,8.89-19.42s-16-6.88-30.51-14.62c-14.82-7.91-20.59-9.58-20.59-9.58" style="fill:#e0e0e0"></path><polyline points="198.67 256.79 187.86 268.73 197.61 286.12 203.27 271.13" style="fill:#e0e0e0"></polyline><path d="M83.77,286.27c-.09.1,1.49,1.33,3.72,3.63a45,45,0,0,1,11.67,21.71c.68,3.13.84,5.12,1,5.11a4.6,4.6,0,0,0,0-1.41,29.12,29.12,0,0,0-.46-3.81,40.69,40.69,0,0,0-11.82-22A30.54,30.54,0,0,0,85,287,4.67,4.67,0,0,0,83.77,286.27Z" style="fill:#263238"></path><path d="M187.34,268.53c-.09.06,1.06,1.83,2.8,4.75A131.61,131.61,0,0,1,196.4,285c.17.38.35.76.52,1.12l.34.74.35-.73a91.9,91.9,0,0,0,4.6-11.64c.47-1.52.81-2.75,1-3.61a4.81,4.81,0,0,0,.25-1.35c-.1,0-.69,1.82-1.77,4.79a124.29,124.29,0,0,1-4.79,11.48h.69c-.16-.37-.34-.75-.52-1.14A97.67,97.67,0,0,0,190.6,273c-.93-1.43-1.73-2.56-2.3-3.32A5.22,5.22,0,0,0,187.34,268.53Z" style="fill:#263238"></path><path d="M135,266.14a3,3,0,0,1,.65.27l1.85.87,6.74,3.29,22.14,11,12.17,6.13-.33.12,6.49-14c.79-1.66,1.43-3,1.9-4l.52-1.05a1.42,1.42,0,0,1,.2-.35,1.56,1.56,0,0,1-.13.38l-.45,1.08c-.44,1-1,2.34-1.77,4-1.58,3.49-3.76,8.34-6.32,14l-.1.22-.23-.11-12.19-6.1L144.08,270.9l-6.66-3.44-1.8-1A3.88,3.88,0,0,1,135,266.14Z" style="fill:#263238"></path><g style="opacity:0.30000000000000004"><path d="M260.79,431.45c2.74-13.91,3.6-21.69,4.38-37.15.19-3.8.89-7.62.23-11.38-1.9-11-10-28.28-19.33-34.35l-3.56,42.79c5.13,12.9,9.64,24.1,14,33.53A63.12,63.12,0,0,0,260.79,431.45Z"></path></g><path d="M46.54,363.4S36.75,410.72,36,421.6C34.38,443,44.66,455.88,54.37,462c10.06,6.31,66.9,9.29,66.9,9.29l3.44-34L87.77,415l5-38.73Z" style="fill:#BA68C8"></path><path d="M88,413.66a4.55,4.55,0,0,1,.07-.78c.08-.55.18-1.29.31-2.22.3-2,.72-4.76,1.23-8.16,1.09-6.93,2.58-16.41,4.22-26.89l6-38a3.82,3.82,0,0,1,0,.78c0,.51-.12,1.26-.24,2.23-.23,1.94-.62,4.73-1.12,8.18-1,6.89-2.46,16.41-4.12,26.91s-3.22,20-4.38,26.87c-.58,3.39-1,6.16-1.39,8.13-.17.92-.3,1.66-.41,2.21A3.57,3.57,0,0,1,88,413.66Z" style="fill:#263238"></path><path d="M51.32,460.06a3.51,3.51,0,0,1,.28.23,6.08,6.08,0,0,0,.84.62,17.39,17.39,0,0,0,3.67,1.71,92.08,92.08,0,0,0,14.64,3.47A435.32,435.32,0,0,0,121.28,471l-.27.24c.34-3.35.7-6.88,1.06-10.47.84-8.23,1.65-16.18,2.39-23.52l.12.24L88.79,415.88l-10.35-6.3-2.75-1.71-.7-.44c-.16-.11-.24-.16-.23-.17l.25.13.73.41,2.79,1.63L89,415.61l35.89,21.46.14.09,0,.15-2.37,23.52c-.37,3.59-.73,7.12-1.07,10.47l0,.24h-.24a417.72,417.72,0,0,1-50.57-5.1A87.27,87.27,0,0,1,56,462.79a16.26,16.26,0,0,1-3.66-1.8,4.24,4.24,0,0,1-.81-.67C51.39,460.16,51.31,460.07,51.32,460.06Z" style="fill:#263238"></path><path d="M269.28,407a11.89,11.89,0,0,1,.32-1.72c.23-1.1.6-2.68,1.07-4.63.95-3.89,2.37-9.25,4.26-15.08s3.92-11,5.45-14.7c.77-1.85,1.4-3.34,1.86-4.37A11.09,11.09,0,0,1,283,365a11.19,11.19,0,0,1-.57,1.65L280.72,371c-1.44,3.74-3.4,8.91-5.29,14.72s-3.36,11.15-4.4,15c-.51,1.87-.92,3.41-1.23,4.58A10.86,10.86,0,0,1,269.28,407Z" style="fill:#263238"></path><g style="opacity:0.30000000000000004"><path d="M62.74,400.94a2.31,2.31,0,0,1,1.44-.82c2.72-.62,5.53.37,8.07,1.54a55,55,0,0,1,19.56,15.7l-.64-.36c-8.65-5.11-16.32-10.3-25.59-12.78a5.6,5.6,0,0,1-2.33-1A1.84,1.84,0,0,1,62.74,400.94Z"></path></g><polygon points="254.66 368.56 258.98 372.92 166.42 372.92 150.96 471.4 147.5 465.48 163.24 369.22 254.66 368.56" style="fill:#e0e0e0"></polygon><polygon points="162.15 404.78 166.42 372.92 258.98 372.92 261.62 372.92 245.27 471.9 150.96 471.4 162.15 404.78" style="fill:#455a64"></polygon><path d="M166.46,373.82s.21-.1.64-.27,1.07-.42,1.88-.81a9.69,9.69,0,0,0,2.71-1.85,5.26,5.26,0,0,0,1.61-4,3.19,3.19,0,0,0-1.22-2.24,2.88,2.88,0,0,0-2.68-.59,2.46,2.46,0,0,0-1.6,2.41,5.52,5.52,0,0,0,1.06,3.2,10.08,10.08,0,0,0,6.51,3.64,10.38,10.38,0,0,0,4.14-.21,7.71,7.71,0,0,0,3.76-2.12,4.85,4.85,0,0,0,1.1-1.92,3.83,3.83,0,0,0-.08-2.22A3.54,3.54,0,0,0,183,365a2.47,2.47,0,0,0-2.19-.31,3.88,3.88,0,0,0-2.33,3.87,5.27,5.27,0,0,0,2.93,3.91,12.35,12.35,0,0,0,10.58.17,9.12,9.12,0,0,0,4.34-3.5,3.27,3.27,0,0,0,.26-2.68,2.2,2.2,0,0,0-2-1.6,2.53,2.53,0,0,0-2.15,1.52,3.19,3.19,0,0,0-.14,2.78c.78,1.84,2.68,3,4.53,3.88a16.63,16.63,0,0,0,6,1.78,8.88,8.88,0,0,0,6-1.63,6.37,6.37,0,0,0,2-2.43,5.37,5.37,0,0,0,.36-3.12,5.1,5.1,0,0,0-1.45-2.79,3.45,3.45,0,0,0-2.9-1,4.22,4.22,0,0,0-2.72,1.56,2.9,2.9,0,0,0-.49,3,5,5,0,0,0,2.23,2.33A14.16,14.16,0,0,0,209,372a18.09,18.09,0,0,0,6.78.62,10.15,10.15,0,0,0,3.23-.85,5.33,5.33,0,0,0,2.4-2.12,4,4,0,0,0,.23-3.08,2.6,2.6,0,0,0-2.16-1.93,2.86,2.86,0,0,0-2.58,1.36,3.6,3.6,0,0,0-.6,2.94,7,7,0,0,0,4.23,4.38,12.63,12.63,0,0,0,6.14,1,10.47,10.47,0,0,0,5.65-2.14,6,6,0,0,0,1.79-2.33,4.27,4.27,0,0,0,.33-1.4,3.27,3.27,0,0,0-.24-1.38,4.08,4.08,0,0,0-1.89-2,2.49,2.49,0,0,0-2.58.05,2.7,2.7,0,0,0-1.12,2.34,5.49,5.49,0,0,0,.76,2.64,8.31,8.31,0,0,0,4.2,3.39,11,11,0,0,0,5.27.67,9.86,9.86,0,0,0,4.77-1.88,6.22,6.22,0,0,0,2.6-4,3.59,3.59,0,0,0-2.17-3.73,2.5,2.5,0,0,0-2.12.22,3.52,3.52,0,0,0-1.39,1.66,4.57,4.57,0,0,0,.58,4.1,8.06,8.06,0,0,0,3,2.77,9.45,9.45,0,0,0,7.41.63c2.24-.76,4.1-2.46,4.46-4.49a3.15,3.15,0,0,0-3-3.74,2.4,2.4,0,0,0-1.84,1.27,3.73,3.73,0,0,0-.46,2,5.29,5.29,0,0,0,1.26,3,18.28,18.28,0,0,0,1.38,1.5l.49.49s-.18-.14-.53-.45a15.21,15.21,0,0,1-1.42-1.48,5.37,5.37,0,0,1-1.34-3,3.92,3.92,0,0,1,.47-2.09,2.58,2.58,0,0,1,2-1.38,3.37,3.37,0,0,1,3.28,4c-.38,2.16-2.31,3.93-4.62,4.72a9.67,9.67,0,0,1-7.66-.61,8.39,8.39,0,0,1-3.17-2.88,4.89,4.89,0,0,1-.63-4.42,3.81,3.81,0,0,1,1.53-1.84,2.85,2.85,0,0,1,2.45-.26,4,4,0,0,1,2.44,4.13,6.65,6.65,0,0,1-2.74,4.34,10.44,10.44,0,0,1-5,2,11.38,11.38,0,0,1-5.49-.69,10.26,10.26,0,0,1-2.5-1.4,7.22,7.22,0,0,1-1.94-2.17,6,6,0,0,1-.83-2.87,3.17,3.17,0,0,1,1.32-2.72,3,3,0,0,1,3.06-.09,4.45,4.45,0,0,1,2.12,2.28,3.91,3.91,0,0,1,.29,1.59,5.3,5.3,0,0,1-.37,1.56,6.52,6.52,0,0,1-1.93,2.51,10.87,10.87,0,0,1-5.92,2.26,13,13,0,0,1-6.38-1,9.59,9.59,0,0,1-2.79-1.82,5.88,5.88,0,0,1-1.74-2.9,4.19,4.19,0,0,1,.68-3.36,3.4,3.4,0,0,1,3.06-1.58,3.15,3.15,0,0,1,2.59,2.28,4.5,4.5,0,0,1-.26,3.5,5.87,5.87,0,0,1-2.64,2.34,10.55,10.55,0,0,1-3.4.89,18.34,18.34,0,0,1-7-.63,14.79,14.79,0,0,1-3.28-1.34,5.53,5.53,0,0,1-2.46-2.59,3.48,3.48,0,0,1,.57-3.49,4.79,4.79,0,0,1,3.06-1.75,4,4,0,0,1,3.32,1.1,5.55,5.55,0,0,1,1.6,3.08,5.9,5.9,0,0,1-.39,3.42,6.94,6.94,0,0,1-2.17,2.63,9.38,9.38,0,0,1-6.34,1.72,17.14,17.14,0,0,1-6.2-1.84,15,15,0,0,1-2.75-1.64,6.22,6.22,0,0,1-2-2.5,3.66,3.66,0,0,1,.16-3.18,3,3,0,0,1,2.59-1.78,2.69,2.69,0,0,1,2.42,1.93,3.76,3.76,0,0,1-.3,3.06,7,7,0,0,1-2,2.22,13.27,13.27,0,0,1-2.55,1.47,13.68,13.68,0,0,1-5.6,1.13,11.4,11.4,0,0,1-5.37-1.34,5.68,5.68,0,0,1-3.13-4.26,4.28,4.28,0,0,1,2.61-4.29,2.92,2.92,0,0,1,2.54.37,3.87,3.87,0,0,1,1.47,2,4.26,4.26,0,0,1,.08,2.45,5.31,5.31,0,0,1-1.19,2.06,8,8,0,0,1-3.94,2.21,10.71,10.71,0,0,1-4.28.2,10.3,10.3,0,0,1-6.7-3.81,5.78,5.78,0,0,1-1.09-3.37,3,3,0,0,1,.48-1.63,2.66,2.66,0,0,1,1.31-1,3.12,3.12,0,0,1,2.9.66,3.34,3.34,0,0,1,1.28,2.39,5.37,5.37,0,0,1-1.7,4.14,9.42,9.42,0,0,1-2.78,1.85A20.67,20.67,0,0,1,166.46,373.82Z" style="fill:#263238"></path><path d="M124.65,437.91l5.44.51s.7-7.94,1.93-10.93,3.52-12.5,3.52-12.5,24.3-10.21,24.83-10.21,24.29,6.51,24.29,6.51-.53,6.51-8.63,6.87a55.81,55.81,0,0,1-14.43-1.24L154,419.74l15.14,1,26.58,15.94s-.18,4.74-10.56,2.28-15.67-6.87-15.67-6.87L149.9,435l20.68,1,15.49,7.74s-.14,6.42-6.48,4.84S169,446,169,446l-18.47,2.19,15.65.87s10.57.29,10,3.1-8.27,5.28-8.27,5.28l-11,1.94s-.42,4.93-2.35,6.51-4.93,3.79-6.69,3.83-26.58,1.36-26.58,1.36Z" style="fill:#9f7362"></path><path d="M138.19,462a5.27,5.27,0,0,1-.94-.62,14.67,14.67,0,0,1-2.19-2.12,17.43,17.43,0,0,1-4-9.15,16.61,16.61,0,0,1,.25-5.55c.36-1.69.95-3.09,1.11-4.34a5.83,5.83,0,0,0-.23-2.91c-.25-.66-.51-1-.48-1s.35.24.67.91a5.57,5.57,0,0,1,.4,3c-.12,1.3-.68,2.76-1,4.39a16.73,16.73,0,0,0-.2,5.38,18.11,18.11,0,0,0,3.74,9A33.85,33.85,0,0,0,138.19,462Z" style="fill:#65463c"></path><path d="M141.18,460.06a63.79,63.79,0,0,1,8.08-.55,64.15,64.15,0,0,1,8.11,0,61.7,61.7,0,0,1-8.09.55A61.83,61.83,0,0,1,141.18,460.06Z" style="fill:#65463c"></path><path d="M142.38,448.43a18.11,18.11,0,0,1,4.3-.19,18.44,18.44,0,0,1,4.28.32,17.09,17.09,0,0,1-4.29.2A17.68,17.68,0,0,1,142.38,448.43Z" style="fill:#65463c"></path><path d="M141.57,421.27c0-.16,2.7.3,6,0s5.83-1.27,5.89-1.11a14.21,14.21,0,0,1-5.84,1.63A13.92,13.92,0,0,1,141.57,421.27Z" style="fill:#65463c"></path></g></svg>